<svg xmlns="http://www.w3.org/2000/svg" width="717.672" height="435.49" viewBox="0 0 717.672 435.49">
  <g id="corporate-text" opacity="0.2">
    <path id="パス_48" data-name="パス 48" d="M15.6-63.91,4.05-66.348V-69.3H31L62.958,6.805H63.6L95.556-69.3h26.823v2.952L110.957-63.91V24.131l11.422,2.438v2.952H85.93V26.569l11.551-2.438v-78.8h-.513L60.519,30.8H57.054L21.247-55.183h-.513V24.131l11.422,2.438v2.952H4.05V26.569L15.6,24.131Zm162.477-.257v39.015H201.05a56.788,56.788,0,0,0,2.952-7.7,62.6,62.6,0,0,0,1.8-7.7h3.08V-4.617H205.8a52.635,52.635,0,0,0-4.749-15.4H178.078V24.387h36.192a76.815,76.815,0,0,0,6.224-12.449q2.374-6.16,4.556-12.449h4.235l-4.749,30.031H153.693V26.569L164.6,24.131V-63.91l-10.909-2.438V-69.3H225.05l2.182,28.235h-3.08q-1.54-5.519-3.786-11.551a75.017,75.017,0,0,0-5.454-11.55Zm167.1,96.254H341.2L277.925-56.081V24.131l11.422,2.438v2.952H261.241V26.569l11.551-2.438V-63.91l-11.551-2.438V-69.3h25.924L340.042,3.34V-63.91L328.62-66.348V-69.3h28.106v2.952l-11.55,2.438Z" transform="translate(-4.05 70.579)" fill="#9e9179"/>
    <path id="パス_50" data-name="パス 50" d="M3.773-14.117l-2.567-.542v-.656H7.2L14.3,1.6h.143l7.1-16.912H27.5v.656l-2.538.542V5.448l2.538.542v.656H19.4V5.989l2.567-.542V-12.064h-.114l-8.1,18.994h-.77L5.028-12.178H4.914V5.448l2.538.542v.656H1.207V5.989l2.567-.542Zm31.857.371a1.854,1.854,0,0,1,.5-1.326,1.74,1.74,0,0,1,1.326-.528,1.776,1.776,0,0,1,1.355.528,1.854,1.854,0,0,1,.5,1.326,1.831,1.831,0,0,1-.5,1.283,1.751,1.751,0,0,1-1.355.542,1.717,1.717,0,0,1-1.326-.542A1.831,1.831,0,0,1,35.63-13.746ZM40.963,6.075v.57H33.947v-.57l2.168-.428V-6.217L34-6.987v-.4l4.563-1.369h.257v14.4ZM52.856-8.755a13.814,13.814,0,0,1,1.9.128,6.024,6.024,0,0,1,1.469.356v3.964h-.6Q55.195-7.9,52.286-7.9a2.58,2.58,0,0,0-1.811.613,2.185,2.185,0,0,0-.67,1.7,2.19,2.19,0,0,0,.528,1.526,4.916,4.916,0,0,0,1.312,1.012q.784.428,1.711.827a9.325,9.325,0,0,1,1.711.955,4.852,4.852,0,0,1,1.312,1.4,4.052,4.052,0,0,1,.528,2.182,4.268,4.268,0,0,1-1.412,3.38,5.607,5.607,0,0,1-3.836,1.241,13.14,13.14,0,0,1-2.011-.171A11.261,11.261,0,0,1,47.723,6.3l-.171-4.62h.684q.4,4.392,3.651,4.392a2.9,2.9,0,0,0,2.053-.713,2.479,2.479,0,0,0,.77-1.911,2.44,2.44,0,0,0-.528-1.626,5.079,5.079,0,0,0-1.326-1.1,17.2,17.2,0,0,0-1.725-.884,10.486,10.486,0,0,1-1.725-.97A4.913,4.913,0,0,1,48.079-2.5a3.786,3.786,0,0,1-.528-2.1,3.7,3.7,0,0,1,1.369-3.08A6.219,6.219,0,0,1,52.856-8.755Zm16.684,0a13.814,13.814,0,0,1,1.9.128,6.023,6.023,0,0,1,1.469.356v3.964h-.6Q71.879-7.9,68.97-7.9a2.58,2.58,0,0,0-1.811.613,2.185,2.185,0,0,0-.67,1.7,2.19,2.19,0,0,0,.528,1.526,4.919,4.919,0,0,0,1.312,1.012q.784.428,1.711.827a9.326,9.326,0,0,1,1.711.955,4.852,4.852,0,0,1,1.312,1.4A4.052,4.052,0,0,1,73.59,2.31a4.268,4.268,0,0,1-1.412,3.38,5.607,5.607,0,0,1-3.836,1.241,13.142,13.142,0,0,1-2.011-.171A11.262,11.262,0,0,1,64.407,6.3l-.171-4.62h.685q.4,4.392,3.65,4.392a2.9,2.9,0,0,0,2.053-.713,2.479,2.479,0,0,0,.77-1.911,2.44,2.44,0,0,0-.528-1.626A5.081,5.081,0,0,0,69.54.728a17.208,17.208,0,0,0-1.726-.884,10.489,10.489,0,0,1-1.725-.97A4.915,4.915,0,0,1,64.763-2.5a3.787,3.787,0,0,1-.528-2.1A3.7,3.7,0,0,1,65.6-7.671,6.219,6.219,0,0,1,69.54-8.755Zm12.292-4.991a1.854,1.854,0,0,1,.5-1.326,1.74,1.74,0,0,1,1.326-.528,1.776,1.776,0,0,1,1.355.528,1.854,1.854,0,0,1,.5,1.326,1.831,1.831,0,0,1-.5,1.283,1.751,1.751,0,0,1-1.355.542,1.717,1.717,0,0,1-1.326-.542A1.831,1.831,0,0,1,81.832-13.746ZM87.165,6.075v.57H80.15v-.57l2.168-.428V-6.217l-2.111-.77v-.4L84.77-8.755h.257v14.4Zm13.718-14.83a7.389,7.389,0,0,1,2.995.6,7.289,7.289,0,0,1,2.367,1.64,7.561,7.561,0,0,1,1.568,2.481,8.4,8.4,0,0,1,.571,3.123,8.4,8.4,0,0,1-.571,3.123,7.727,7.727,0,0,1-1.568,2.5,7.01,7.01,0,0,1-2.367,1.64,7.545,7.545,0,0,1-2.995.585,7.545,7.545,0,0,1-2.994-.585,7.009,7.009,0,0,1-2.367-1.64,7.729,7.729,0,0,1-1.569-2.5,8.4,8.4,0,0,1-.57-3.123,8.4,8.4,0,0,1,.57-3.123,7.563,7.563,0,0,1,1.569-2.481,7.288,7.288,0,0,1,2.367-1.64A7.389,7.389,0,0,1,100.883-8.755ZM96.406-.912a8.47,8.47,0,0,0,1.184,4.834,3.749,3.749,0,0,0,3.265,1.725,3.8,3.8,0,0,0,3.308-1.74,8.462,8.462,0,0,0,1.2-4.848,8.411,8.411,0,0,0-1.184-4.806,3.775,3.775,0,0,0-3.294-1.725,3.775,3.775,0,0,0-3.294,1.725A8.47,8.47,0,0,0,96.406-.912Zm25.44,6.987v.57H114.83v-.57L117,5.647V-6.188l-2.11-.8v-.371l4.421-1.4h.285v2.424a9.436,9.436,0,0,1,2.61-1.8,6.618,6.618,0,0,1,2.752-.627,4.353,4.353,0,0,1,2.025.456,2.831,2.831,0,0,1,1.283,1.255,2.574,2.574,0,0,1,.185.5,4.707,4.707,0,0,1,.114.727q.043.456.057,1.127t.014,1.7v8.67l2.139.4v.57h-6.987v-.57l2.139-.4V-2.709q0-1.226-.071-1.954a4.321,4.321,0,0,0-.271-1.212,2.158,2.158,0,0,0-2.224-1.312,4.457,4.457,0,0,0-1.968.456,5.254,5.254,0,0,0-1.683,1.312V5.647ZM6.74,37.162v8.67h5.105A12.627,12.627,0,0,0,12.5,44.12a13.914,13.914,0,0,0,.4-1.711h.684v7.986H12.9a11.7,11.7,0,0,0-1.055-3.422H6.74V56.84h8.043a17.064,17.064,0,0,0,1.383-2.766q.528-1.369,1.012-2.766h.941l-1.055,6.674H1.321v-.656l2.424-.542V37.219l-2.424-.542v-.656H17.178l.485,6.274h-.684q-.342-1.226-.841-2.567a16.668,16.668,0,0,0-1.212-2.567Zm24.441,21.1a4.946,4.946,0,0,1-2.339-.57,5.859,5.859,0,0,1-1.882-1.583,7.5,7.5,0,0,1-1.241-2.41,9.973,9.973,0,0,1-.442-3.023,9.5,9.5,0,0,1,.542-3.28,7.426,7.426,0,0,1,1.54-2.553,7.085,7.085,0,0,1,2.367-1.668,7.535,7.535,0,0,1,3.052-.6,11.257,11.257,0,0,1,3.08.428V36.876l-2.082-.8v-.371l4.478-1.4h.285V55.757l1.939.428V56.5l-4.221,1.768h-.2V55.814l-.114-.057a5.877,5.877,0,0,1-2.125,1.9A5.76,5.76,0,0,1,31.181,58.266Zm1.2-1.854a4.644,4.644,0,0,0,2.053-.456,3.366,3.366,0,0,0,1.426-1.226V46.573q0-3.137-3.137-3.137a3.468,3.468,0,0,0-1.811.485,4.353,4.353,0,0,0-1.4,1.369,7.115,7.115,0,0,0-.913,2.139,11.054,11.054,0,0,0-.328,2.795,8.2,8.2,0,0,0,1.084,4.535A3.422,3.422,0,0,0,32.379,56.413ZM54.852,43.436v-.57H59.7V55.842l1.939.684v.342l-4.278,1.4h-.2v-2.6l-.114-.029A7.181,7.181,0,0,1,54.71,57.6a6,6,0,0,1-2.766.67,4.16,4.16,0,0,1-2.011-.456,2.839,2.839,0,0,1-1.241-1.283,3.883,3.883,0,0,1-.328-1.3q-.043-.442-.057-1.1t-.014-1.654V43.864l-2.139-.428v-.57H51v9.611q0,1.34.071,2.053a3.587,3.587,0,0,0,.271,1.141,1.7,1.7,0,0,0,.742.77,2.55,2.55,0,0,0,1.255.285,4,4,0,0,0,1.939-.513,5.661,5.661,0,0,0,1.711-1.483V43.864ZM75.13,58.266a6.926,6.926,0,0,1-2.809-.556,6.458,6.458,0,0,1-2.2-1.569,7.173,7.173,0,0,1-1.44-2.424,9.642,9.642,0,0,1,.043-6.331A7.516,7.516,0,0,1,70.3,44.848a7.2,7.2,0,0,1,2.4-1.668,7.636,7.636,0,0,1,3.066-.6,7.291,7.291,0,0,1,2.025.271,5.81,5.81,0,0,1,1.626.727,3.751,3.751,0,0,1,1.084,1.069,2.339,2.339,0,0,1,.4,1.3,1.883,1.883,0,0,1-.342,1.184,1.155,1.155,0,0,1-.97.442q-1.483,0-1.683-1.8a5.508,5.508,0,0,0-.243-1.155,1.957,1.957,0,0,0-.4-.7,1.183,1.183,0,0,0-.585-.342,3.455,3.455,0,0,0-.827-.086,4.038,4.038,0,0,0-3.522,1.782,8.22,8.22,0,0,0-1.241,4.777,7.076,7.076,0,0,0,1.283,4.535,4.382,4.382,0,0,0,3.622,1.6,5.743,5.743,0,0,0,2.41-.513,4.778,4.778,0,0,0,1.9-1.569l.314-.428.542.285-.143.371a6.081,6.081,0,0,1-2.267,2.909A6.308,6.308,0,0,1,75.13,58.266Zm16.085,0a3.3,3.3,0,0,1-2.481-.97,3.452,3.452,0,0,1-.941-2.51,3.316,3.316,0,0,1,.413-1.668,3.967,3.967,0,0,1,1.34-1.326,10.808,10.808,0,0,1,2.424-1.1,34.369,34.369,0,0,1,3.636-.955V46.944a4.649,4.649,0,0,0-.513-2.538,2,2,0,0,0-1.768-.742,2.969,2.969,0,0,0-1.939.585,1.939,1.939,0,0,0-.713,1.583,4.8,4.8,0,0,0,.028.5,4.788,4.788,0,0,1,.029.5,1.715,1.715,0,0,1-.413,1.2,1.377,1.377,0,0,1-1.07.456,1.275,1.275,0,0,1-.941-.371,1.349,1.349,0,0,1-.371-1,3.053,3.053,0,0,1,.841-1.939,7.091,7.091,0,0,1,2.239-1.711,7.783,7.783,0,0,1,3.622-.884,5.056,5.056,0,0,1,2.082.385,2.419,2.419,0,0,1,1.226,1.127,3.481,3.481,0,0,1,.185.528,4.641,4.641,0,0,1,.114.685q.043.414.057,1.027t.014,1.5v6.531a5.545,5.545,0,0,0,.214,1.911.829.829,0,0,0,.841.485,1.376,1.376,0,0,0,.713-.185,2.755,2.755,0,0,0,.684-.642l.485.428A4.673,4.673,0,0,1,99.9,57.824a2.949,2.949,0,0,1-1.611.442q-2.253,0-2.538-2.567l-.086-.057a6.248,6.248,0,0,1-2.011,1.925A4.737,4.737,0,0,1,91.215,58.266Zm1.255-1.683a3.316,3.316,0,0,0,1.74-.5,4.224,4.224,0,0,0,1.4-1.412V50.566q-1.512.314-2.524.627a5.912,5.912,0,0,0-1.626.742,2.519,2.519,0,0,0-.87.97,2.973,2.973,0,0,0-.257,1.283,2.567,2.567,0,0,0,.556,1.782A2.028,2.028,0,0,0,92.47,56.584Zm19.08,1.683a3.129,3.129,0,0,1-2.225-.8,2.665,2.665,0,0,1-.727-1.212,7.572,7.572,0,0,1-.214-2.039V43.864H106.53l-.057-.456,4.107-4.278.513.057v3.679h4.078l-.228,1h-3.85v10.1a12.972,12.972,0,0,0,.057,1.483,1.953,1.953,0,0,0,.2.684,1.528,1.528,0,0,0,1.426.8,2.43,2.43,0,0,0,1.155-.314,3.223,3.223,0,0,0,1.012-.856l.485.371a4.748,4.748,0,0,1-1.683,1.569A4.451,4.451,0,0,1,111.55,58.266Zm10.923-20.677a1.854,1.854,0,0,1,.5-1.326,1.74,1.74,0,0,1,1.326-.528,1.776,1.776,0,0,1,1.355.528,1.854,1.854,0,0,1,.5,1.326,1.831,1.831,0,0,1-.5,1.283,1.751,1.751,0,0,1-1.355.542,1.717,1.717,0,0,1-1.326-.542A1.831,1.831,0,0,1,122.473,37.589Zm5.333,19.821v.57H120.79v-.57l2.168-.428V45.119l-2.111-.77v-.4l4.563-1.369h.257v14.4Zm13.718-14.83a7.39,7.39,0,0,1,2.995.6,7.291,7.291,0,0,1,2.367,1.64,7.564,7.564,0,0,1,1.568,2.481,8.834,8.834,0,0,1,0,6.246,7.73,7.73,0,0,1-1.568,2.5,7.011,7.011,0,0,1-2.367,1.64,7.961,7.961,0,0,1-5.989,0,7.006,7.006,0,0,1-2.367-1.64,7.73,7.73,0,0,1-1.569-2.5,8.833,8.833,0,0,1,0-6.246,7.564,7.564,0,0,1,1.569-2.481,7.286,7.286,0,0,1,2.367-1.64A7.389,7.389,0,0,1,141.524,42.58Zm-4.478,7.843a8.47,8.47,0,0,0,1.184,4.834,3.75,3.75,0,0,0,3.266,1.725,3.8,3.8,0,0,0,3.308-1.74,8.463,8.463,0,0,0,1.2-4.848,8.412,8.412,0,0,0-1.184-4.806,4.007,4.007,0,0,0-6.588,0A8.47,8.47,0,0,0,137.046,50.423Zm25.44,6.987v.57H155.47v-.57l2.168-.428V45.147l-2.111-.8v-.371l4.421-1.4h.285V45a9.433,9.433,0,0,1,2.609-1.8,6.618,6.618,0,0,1,2.752-.627,4.351,4.351,0,0,1,2.025.456,2.83,2.83,0,0,1,1.283,1.255,2.574,2.574,0,0,1,.185.5,4.705,4.705,0,0,1,.114.727q.043.456.057,1.127t.014,1.7v8.67l2.139.4v.57h-6.988v-.57l2.139-.4V48.627q0-1.226-.071-1.954a4.319,4.319,0,0,0-.271-1.212A2.159,2.159,0,0,0,164,44.149a4.456,4.456,0,0,0-1.968.456,5.252,5.252,0,0,0-1.683,1.312V56.983ZM19.859,109.887h-.884L4.914,90.294v17.825l2.538.542v.656H1.207v-.656l2.567-.542V88.554l-2.567-.542v-.656H6.968L18.718,103.5V88.554l-2.538-.542v-.656h6.246v.656l-2.567.542Zm12.035-.285a3.3,3.3,0,0,1-2.481-.97,3.452,3.452,0,0,1-.941-2.51,3.315,3.315,0,0,1,.414-1.668,3.967,3.967,0,0,1,1.34-1.326,10.811,10.811,0,0,1,2.424-1.1,34.347,34.347,0,0,1,3.636-.955V98.28a4.65,4.65,0,0,0-.513-2.538A2,2,0,0,0,34,95a2.969,2.969,0,0,0-1.939.585,1.939,1.939,0,0,0-.713,1.583,4.789,4.789,0,0,0,.029.5,4.791,4.791,0,0,1,.029.5,1.715,1.715,0,0,1-.414,1.2,1.377,1.377,0,0,1-1.07.456,1.275,1.275,0,0,1-.941-.371,1.349,1.349,0,0,1-.371-1,3.053,3.053,0,0,1,.841-1.939A7.09,7.09,0,0,1,31.694,94.8a7.781,7.781,0,0,1,3.622-.884A5.057,5.057,0,0,1,37.4,94.3a2.419,2.419,0,0,1,1.226,1.126,3.476,3.476,0,0,1,.185.528,4.632,4.632,0,0,1,.114.684q.043.413.057,1.027t.014,1.5v6.531a5.543,5.543,0,0,0,.214,1.911.829.829,0,0,0,.841.485,1.374,1.374,0,0,0,.713-.185,2.756,2.756,0,0,0,.684-.642l.485.428a4.674,4.674,0,0,1-1.355,1.469,2.95,2.95,0,0,1-1.611.442q-2.253,0-2.538-2.567l-.086-.057a6.25,6.25,0,0,1-2.011,1.925A4.738,4.738,0,0,1,31.894,109.6Zm1.255-1.683a3.316,3.316,0,0,0,1.74-.5,4.223,4.223,0,0,0,1.4-1.412V101.9q-1.512.314-2.524.627a5.909,5.909,0,0,0-1.626.742,2.518,2.518,0,0,0-.87.97,2.972,2.972,0,0,0-.257,1.283,2.568,2.568,0,0,0,.556,1.783A2.028,2.028,0,0,0,33.149,107.919Zm19.08,1.683A3.129,3.129,0,0,1,50,108.8a2.666,2.666,0,0,1-.727-1.212,7.572,7.572,0,0,1-.214-2.039V95.2H47.209l-.057-.456,4.107-4.278.513.057V94.2h4.078l-.228,1h-3.85v10.1a12.976,12.976,0,0,0,.057,1.483,1.953,1.953,0,0,0,.2.684,1.527,1.527,0,0,0,1.426.8,2.43,2.43,0,0,0,1.155-.314,3.223,3.223,0,0,0,1.012-.856l.485.371a4.747,4.747,0,0,1-1.683,1.569A4.452,4.452,0,0,1,52.229,109.6Zm17.682-14.83V94.2h4.848v12.976l1.939.685v.342l-4.278,1.4h-.2v-2.6l-.114-.028a7.182,7.182,0,0,1-2.339,1.954A6,6,0,0,1,67,109.6a4.161,4.161,0,0,1-2.011-.456,2.84,2.84,0,0,1-1.241-1.283,3.883,3.883,0,0,1-.328-1.3q-.043-.442-.057-1.1t-.014-1.654V95.2l-2.139-.428V94.2h4.848v9.611q0,1.34.071,2.053a3.587,3.587,0,0,0,.271,1.141,1.7,1.7,0,0,0,.742.77,2.551,2.551,0,0,0,1.255.285,4,4,0,0,0,1.939-.513,5.66,5.66,0,0,0,1.711-1.483V95.2Zm20.648,13.975v.57H82.83v-.57L85,108.318V96.454l-2.11-.8v-.371l4.421-1.4h.285v3.137a10.292,10.292,0,0,1,2-2.324,3.081,3.081,0,0,1,1.911-.813,1.8,1.8,0,0,1,1.8,1.8,1.57,1.57,0,0,1-.471,1.155,1.6,1.6,0,0,1-1.184.471,1.276,1.276,0,0,1-1.084-.542,1.983,1.983,0,0,0-.442-.428.826.826,0,0,0-.442-.114,1.431,1.431,0,0,0-1.141.713q-.485.656-.627.884a1.538,1.538,0,0,0-.2.485v10.01Zm21.675-8.214h-10.41v.656a7.626,7.626,0,0,0,1.241,4.734,4.389,4.389,0,0,0,3.693,1.6,6.679,6.679,0,0,0,2.6-.5,4.845,4.845,0,0,0,1.939-1.412l.342-.428.485.285-.171.4a5.8,5.8,0,0,1-2.381,2.738,7.068,7.068,0,0,1-3.75,1,6.824,6.824,0,0,1-2.795-.556,6.288,6.288,0,0,1-2.153-1.554,7.1,7.1,0,0,1-1.4-2.4,9.94,9.94,0,0,1,.057-6.388,7.607,7.607,0,0,1,1.554-2.553,6.85,6.85,0,0,1,2.4-1.654,7.981,7.981,0,0,1,3.109-.585,5.536,5.536,0,0,1,4.307,1.626,7.131,7.131,0,0,1,1.54,4.82Zm-5.9-5.732a3.868,3.868,0,0,0-3.023,1.269,6.509,6.509,0,0,0-1.426,3.665l7.472-.257a1.933,1.933,0,0,0,.071-.5q.014-.328.014-.67Q109.439,94.8,106.331,94.8ZM6.084,160l3.137-.542V139.833H3.488A15.514,15.514,0,0,0,1.934,142.4a25.165,25.165,0,0,0-1.069,2.567H.18l1.055-6.274h18.88l1.055,6.274h-.684a25.168,25.168,0,0,0-1.07-2.567,15.516,15.516,0,0,0-1.554-2.567H12.215v19.622l3.109.542v.656H6.084Zm27.293.086v.57H26.361v-.57l2.168-.428V139.519l-2.11-.77v-.4l4.535-1.369h.285v10.638a10.257,10.257,0,0,1,2.781-1.754,7.54,7.54,0,0,1,2.923-.613,4.352,4.352,0,0,1,2.025.456,2.83,2.83,0,0,1,1.283,1.255,2.574,2.574,0,0,1,.185.5,4.7,4.7,0,0,1,.114.727q.043.456.057,1.126t.014,1.7v8.67l2.139.4v.57H35.773v-.57l2.139-.4V151.3q0-1.226-.071-1.954a4.324,4.324,0,0,0-.271-1.212,2.159,2.159,0,0,0-2.225-1.312,5.4,5.4,0,0,0-4.107,1.854v10.98Zm19.08.856a3.3,3.3,0,0,1-2.481-.97,3.453,3.453,0,0,1-.941-2.51,3.316,3.316,0,0,1,.414-1.668,3.966,3.966,0,0,1,1.34-1.326,10.806,10.806,0,0,1,2.424-1.1,34.4,34.4,0,0,1,3.636-.955v-2.795a4.65,4.65,0,0,0-.513-2.538,2,2,0,0,0-1.768-.741,2.969,2.969,0,0,0-1.939.585,1.939,1.939,0,0,0-.713,1.583,4.794,4.794,0,0,0,.029.5,4.808,4.808,0,0,1,.029.5,1.715,1.715,0,0,1-.414,1.2,1.377,1.377,0,0,1-1.07.456,1.275,1.275,0,0,1-.941-.371,1.349,1.349,0,0,1-.371-1,3.053,3.053,0,0,1,.841-1.939,7.089,7.089,0,0,1,2.239-1.711,7.782,7.782,0,0,1,3.622-.884,5.056,5.056,0,0,1,2.082.385,2.419,2.419,0,0,1,1.226,1.127,3.48,3.48,0,0,1,.185.528,4.636,4.636,0,0,1,.114.685q.043.413.057,1.027t.014,1.5v6.531a5.543,5.543,0,0,0,.214,1.911.829.829,0,0,0,.841.485,1.374,1.374,0,0,0,.713-.185,2.753,2.753,0,0,0,.684-.642l.485.428a4.673,4.673,0,0,1-1.355,1.469,2.949,2.949,0,0,1-1.611.442q-2.253,0-2.538-2.567l-.086-.057a6.25,6.25,0,0,1-2.011,1.925A4.739,4.739,0,0,1,52.457,160.938Zm1.255-1.683a3.316,3.316,0,0,0,1.74-.5,4.222,4.222,0,0,0,1.4-1.412v-4.107q-1.512.314-2.524.627a5.908,5.908,0,0,0-1.626.742,2.519,2.519,0,0,0-.87.97,2.972,2.972,0,0,0-.257,1.283,2.568,2.568,0,0,0,.556,1.783A2.028,2.028,0,0,0,53.712,159.255Zm21.076.827v.57H67.772v-.57l2.167-.428V147.818l-2.11-.8v-.371l4.421-1.4h.285v2.424a9.437,9.437,0,0,1,2.61-1.8,6.616,6.616,0,0,1,2.752-.627,4.351,4.351,0,0,1,2.025.456,2.831,2.831,0,0,1,1.283,1.255,2.58,2.58,0,0,1,.185.5,4.707,4.707,0,0,1,.114.727q.043.456.057,1.126t.014,1.7v8.67l2.139.4v.57H76.727v-.57l2.139-.4V151.3q0-1.226-.071-1.954a4.321,4.321,0,0,0-.271-1.212A2.158,2.158,0,0,0,76.3,146.82a4.456,4.456,0,0,0-1.968.456,5.255,5.255,0,0,0-1.683,1.312v11.066Zm22.5-14.545h6.388v.57q-.856.171-1.412.3a4.836,4.836,0,0,0-.927.3,2.852,2.852,0,0,0-.656.414,5.281,5.281,0,0,0-.6.613L96.862,151.5l6.788,8.157,2.4.428v.57h-4.991l-5.9-7.187-1.112,1.312v4.877l2.139.428v.57h-6.93v-.57l2.168-.428V139.519l-2.082-.77v-.371l4.421-1.4h.285v16.256l4.763-5.419a1.968,1.968,0,0,0,.6-1.027q0-.257-.428-.4a9.954,9.954,0,0,0-1.683-.285Zm19.393-.285a13.822,13.822,0,0,1,1.9.128,6.024,6.024,0,0,1,1.469.357V149.7h-.6q-.428-3.594-3.337-3.594a2.581,2.581,0,0,0-1.811.613,2.477,2.477,0,0,0-.143,3.223,4.914,4.914,0,0,0,1.312,1.013q.784.428,1.711.827a9.328,9.328,0,0,1,1.711.956,4.851,4.851,0,0,1,1.312,1.4,4.051,4.051,0,0,1,.528,2.182,4.268,4.268,0,0,1-1.412,3.38,5.607,5.607,0,0,1-3.836,1.241,13.157,13.157,0,0,1-2.011-.171,11.261,11.261,0,0,1-1.925-.456l-.171-4.62h.684q.4,4.392,3.651,4.392a2.9,2.9,0,0,0,2.053-.713,2.478,2.478,0,0,0,.77-1.911,2.44,2.44,0,0,0-.528-1.626,5.079,5.079,0,0,0-1.326-1.1,17.179,17.179,0,0,0-1.725-.884,10.5,10.5,0,0,1-1.725-.97,4.917,4.917,0,0,1-1.326-1.369,3.787,3.787,0,0,1-.528-2.1,3.7,3.7,0,0,1,1.369-3.08A6.219,6.219,0,0,1,116.683,145.252ZM11.845,189.743a9.808,9.808,0,0,1,4.107.855,10.13,10.13,0,0,1,3.28,2.367,10.9,10.9,0,0,1,2.182,3.579,13.092,13.092,0,0,1,0,8.927,10.9,10.9,0,0,1-2.182,3.579,10.131,10.131,0,0,1-3.28,2.367,9.805,9.805,0,0,1-4.107.856,9.805,9.805,0,0,1-4.107-.856,10.131,10.131,0,0,1-3.28-2.367,10.9,10.9,0,0,1-2.182-3.579,13.092,13.092,0,0,1,0-8.927,10.9,10.9,0,0,1,2.182-3.579,10.13,10.13,0,0,1,3.28-2.367A9.808,9.808,0,0,1,11.845,189.743ZM5.085,200.979a17.588,17.588,0,0,0,.456,4.192,9.644,9.644,0,0,0,1.34,3.152,6.188,6.188,0,0,0,2.125,1.982,5.778,5.778,0,0,0,2.838.684,5.8,5.8,0,0,0,2.823-.684,6.144,6.144,0,0,0,2.139-1.982,9.641,9.641,0,0,0,1.34-3.166,17.906,17.906,0,0,0,.456-4.235,17.41,17.41,0,0,0-.456-4.178,9.5,9.5,0,0,0-1.326-3.109A5.981,5.981,0,0,0,14.7,191.7a5.9,5.9,0,0,0-2.823-.67,5.961,5.961,0,0,0-2.852.67,6.056,6.056,0,0,0-2.139,1.954,9.474,9.474,0,0,0-1.34,3.137A17.59,17.59,0,0,0,5.085,200.979Zm28.463,17.169,2.823.428v.542H28.7v-.542l2.139-.428V199.126l-2.082-.77v-.4l4.392-1.369h.314v2.51h.114a5.18,5.18,0,0,1,2.11-1.911,5.837,5.837,0,0,1,2.538-.6,5.3,5.3,0,0,1,2.453.57,5.621,5.621,0,0,1,1.9,1.583,7.671,7.671,0,0,1,1.226,2.41,10.072,10.072,0,0,1,.442,3.051,9.067,9.067,0,0,1-.57,3.28,7.217,7.217,0,0,1-4.135,4.207,8.565,8.565,0,0,1-3.223.585,9.46,9.46,0,0,1-1.369-.1,8.719,8.719,0,0,1-1.4-.328Zm2.88-6.731a4.014,4.014,0,0,0,1.982-.5,4.739,4.739,0,0,0,1.54-1.383,6.541,6.541,0,0,0,.984-2.125,10.336,10.336,0,0,0,.342-2.752,7.653,7.653,0,0,0-1.2-4.563,3.833,3.833,0,0,0-3.28-1.654,3.989,3.989,0,0,0-1.811.471,2.843,2.843,0,0,0-1.3,1.184v8.528a2.711,2.711,0,0,0,.784,2.025A2.677,2.677,0,0,0,36.429,211.417ZM64.464,203.2H54.054v.656a7.626,7.626,0,0,0,1.241,4.734,4.388,4.388,0,0,0,3.693,1.6,6.684,6.684,0,0,0,2.6-.5,4.849,4.849,0,0,0,1.939-1.412l.342-.428.485.285-.171.4a5.8,5.8,0,0,1-2.381,2.738,7.067,7.067,0,0,1-3.75,1,6.826,6.826,0,0,1-2.795-.556,6.292,6.292,0,0,1-2.153-1.554,7.109,7.109,0,0,1-1.4-2.4,9.94,9.94,0,0,1,.057-6.388,7.6,7.6,0,0,1,1.554-2.553,6.849,6.849,0,0,1,2.4-1.654,7.985,7.985,0,0,1,3.109-.585,5.535,5.535,0,0,1,4.307,1.626,7.131,7.131,0,0,1,1.54,4.82Zm-5.9-5.732a3.867,3.867,0,0,0-3.023,1.269,6.509,6.509,0,0,0-1.426,3.665l7.472-.256a1.939,1.939,0,0,0,.071-.5q.014-.328.014-.67Q61.669,197.471,58.56,197.471Zm19.45,13.946v.57H70.995v-.57l2.168-.428V199.154l-2.111-.8v-.371l4.421-1.4h.285v2.424a9.44,9.44,0,0,1,2.61-1.8,6.618,6.618,0,0,1,2.752-.627,4.351,4.351,0,0,1,2.025.456,2.83,2.83,0,0,1,1.283,1.255,2.576,2.576,0,0,1,.185.5,4.679,4.679,0,0,1,.114.727q.043.457.057,1.127t.014,1.7v8.67l2.139.4v.57H79.95v-.57l2.139-.4v-8.385q0-1.226-.071-1.953a4.321,4.321,0,0,0-.271-1.212,2.159,2.159,0,0,0-2.225-1.312,4.454,4.454,0,0,0-1.968.457,5.254,5.254,0,0,0-1.683,1.312V210.99Zm21.475,0v.57H92.47v-.57l2.168-.428V190.855l-2.111-.77v-.4l4.535-1.369h.285v10.638a10.257,10.257,0,0,1,2.781-1.754,7.54,7.54,0,0,1,2.923-.613,4.35,4.35,0,0,1,2.025.456,2.83,2.83,0,0,1,1.283,1.255,2.574,2.574,0,0,1,.185.5,4.688,4.688,0,0,1,.114.727q.043.457.057,1.127t.014,1.7v8.67l2.139.4v.57h-6.987v-.57l2.139-.4v-8.385q0-1.226-.071-1.953a4.321,4.321,0,0,0-.271-1.212,2.158,2.158,0,0,0-2.225-1.312,5.4,5.4,0,0,0-4.107,1.854v10.98Zm28.862-8.214h-10.41v.656a7.626,7.626,0,0,0,1.241,4.734,4.388,4.388,0,0,0,3.693,1.6,6.683,6.683,0,0,0,2.6-.5,4.849,4.849,0,0,0,1.939-1.412l.342-.428.485.285-.171.4a5.8,5.8,0,0,1-2.381,2.738,7.067,7.067,0,0,1-3.75,1,6.826,6.826,0,0,1-2.795-.556,6.29,6.29,0,0,1-2.153-1.554,7.109,7.109,0,0,1-1.4-2.4,9.941,9.941,0,0,1,.057-6.388,7.606,7.606,0,0,1,1.554-2.553,6.849,6.849,0,0,1,2.4-1.654,7.985,7.985,0,0,1,3.109-.585,5.536,5.536,0,0,1,4.306,1.626,7.13,7.13,0,0,1,1.54,4.82Zm-5.9-5.732a3.867,3.867,0,0,0-3.023,1.269A6.509,6.509,0,0,0,118,202.405l7.472-.256a1.935,1.935,0,0,0,.071-.5q.014-.328.014-.67Q125.553,197.471,122.444,197.471Zm16.37,14.8a3.3,3.3,0,0,1-2.481-.969,3.453,3.453,0,0,1-.941-2.51,3.318,3.318,0,0,1,.414-1.669,3.969,3.969,0,0,1,1.34-1.326,10.816,10.816,0,0,1,2.424-1.1,34.368,34.368,0,0,1,3.636-.955v-2.8a4.649,4.649,0,0,0-.513-2.538,2,2,0,0,0-1.768-.742,2.971,2.971,0,0,0-1.939.584,1.94,1.94,0,0,0-.713,1.583,4.751,4.751,0,0,0,.029.5,4.79,4.79,0,0,1,.028.5,1.715,1.715,0,0,1-.413,1.2,1.377,1.377,0,0,1-1.07.456,1.275,1.275,0,0,1-.941-.371,1.348,1.348,0,0,1-.371-1,3.054,3.054,0,0,1,.841-1.939,7.087,7.087,0,0,1,2.239-1.711,7.782,7.782,0,0,1,3.622-.884,5.06,5.06,0,0,1,2.082.385,2.42,2.42,0,0,1,1.226,1.127,3.489,3.489,0,0,1,.185.528,4.632,4.632,0,0,1,.114.685q.043.414.057,1.027t.014,1.5v6.531a5.541,5.541,0,0,0,.214,1.911.828.828,0,0,0,.841.485,1.374,1.374,0,0,0,.713-.185,2.75,2.75,0,0,0,.684-.642l.485.428a4.678,4.678,0,0,1-1.355,1.469,2.95,2.95,0,0,1-1.611.442q-2.253,0-2.538-2.567l-.086-.057a6.248,6.248,0,0,1-2.011,1.925A4.738,4.738,0,0,1,138.815,212.273Zm1.255-1.682a3.313,3.313,0,0,0,1.74-.5,4.218,4.218,0,0,0,1.4-1.412v-4.107q-1.511.314-2.524.628a5.912,5.912,0,0,0-1.626.741,2.518,2.518,0,0,0-.87.97,2.972,2.972,0,0,0-.257,1.283,2.568,2.568,0,0,0,.556,1.783A2.028,2.028,0,0,0,140.07,210.591Zm21.818.827v.57h-7.729v-.57l2.168-.428V199.126l-2.111-.8v-.371l4.421-1.4h.285V199.7a10.293,10.293,0,0,1,2-2.324,3.081,3.081,0,0,1,1.911-.813,1.8,1.8,0,0,1,1.8,1.8,1.571,1.571,0,0,1-.471,1.155,1.605,1.605,0,0,1-1.184.471,1.275,1.275,0,0,1-1.084-.542,1.983,1.983,0,0,0-.442-.428A.828.828,0,0,0,161,198.9a1.43,1.43,0,0,0-1.141.713q-.485.656-.628.884a1.545,1.545,0,0,0-.2.485v10.01Zm13.375.856a3.13,3.13,0,0,1-2.224-.8,2.667,2.667,0,0,1-.727-1.212,7.57,7.57,0,0,1-.214-2.039V197.871h-1.854l-.057-.456,4.107-4.278.513.057v3.679h4.078l-.228,1h-3.85v10.1a12.934,12.934,0,0,0,.057,1.483,1.945,1.945,0,0,0,.2.684,1.527,1.527,0,0,0,1.426.8,2.43,2.43,0,0,0,1.155-.314,3.226,3.226,0,0,0,1.012-.856l.485.371a4.747,4.747,0,0,1-1.682,1.569A4.452,4.452,0,0,1,175.263,212.273Zm22.959-9.069h-10.41v.656a7.627,7.627,0,0,0,1.241,4.734,4.388,4.388,0,0,0,3.694,1.6,6.683,6.683,0,0,0,2.6-.5,4.85,4.85,0,0,0,1.939-1.412l.342-.428.485.285-.171.4a5.8,5.8,0,0,1-2.382,2.738,7.067,7.067,0,0,1-3.75,1,6.826,6.826,0,0,1-2.8-.556,6.291,6.291,0,0,1-2.153-1.554,7.11,7.11,0,0,1-1.4-2.4,9.942,9.942,0,0,1,.057-6.388,7.609,7.609,0,0,1,1.554-2.553,6.849,6.849,0,0,1,2.4-1.654,7.986,7.986,0,0,1,3.109-.585,5.535,5.535,0,0,1,4.306,1.626,7.13,7.13,0,0,1,1.54,4.82Zm-5.9-5.732a3.867,3.867,0,0,0-3.023,1.269,6.509,6.509,0,0,0-1.426,3.665l7.472-.256a1.952,1.952,0,0,0,.071-.5q.014-.328.014-.67Q195.427,197.471,192.318,197.471Zm18.794,14.8a4.946,4.946,0,0,1-2.339-.57,5.86,5.86,0,0,1-1.882-1.583,7.506,7.506,0,0,1-1.241-2.41,9.974,9.974,0,0,1-.442-3.023,9.5,9.5,0,0,1,.542-3.28,7.428,7.428,0,0,1,1.54-2.552,7.083,7.083,0,0,1,2.367-1.668,7.53,7.53,0,0,1,3.052-.6,11.257,11.257,0,0,1,3.08.428v-6.132l-2.082-.8v-.371l4.478-1.4h.285v21.447l1.939.428v.314l-4.221,1.768h-.2V209.82l-.114-.057a5.876,5.876,0,0,1-2.125,1.9A5.758,5.758,0,0,1,211.112,212.273Zm1.2-1.854a4.645,4.645,0,0,0,2.054-.456,3.365,3.365,0,0,0,1.426-1.226V200.58q0-3.137-3.137-3.137a3.47,3.47,0,0,0-1.811.485,4.356,4.356,0,0,0-1.4,1.369,7.114,7.114,0,0,0-.913,2.139,11.047,11.047,0,0,0-.328,2.795,8.205,8.205,0,0,0,1.084,4.535A3.422,3.422,0,0,0,212.31,210.419Zm21.048,1v.57h-7.016v-.57l2.168-.428V199.154l-2.11-.8v-.371l4.421-1.4h.285v2.424a9.44,9.44,0,0,1,2.61-1.8,6.617,6.617,0,0,1,2.752-.627,4.351,4.351,0,0,1,2.025.456,2.83,2.83,0,0,1,1.283,1.255,2.577,2.577,0,0,1,.185.5,4.7,4.7,0,0,1,.114.727q.043.457.057,1.127t.014,1.7v8.67l2.139.4v.57H235.3v-.57l2.139-.4v-8.385q0-1.226-.071-1.953a4.321,4.321,0,0,0-.271-1.212,2.159,2.159,0,0,0-2.225-1.312,4.454,4.454,0,0,0-1.968.457,5.252,5.252,0,0,0-1.683,1.312V210.99Zm28.406-8.214h-10.41v.656a7.626,7.626,0,0,0,1.241,4.734,4.388,4.388,0,0,0,3.693,1.6,6.685,6.685,0,0,0,2.6-.5,4.849,4.849,0,0,0,1.939-1.412l.342-.428.485.285-.171.4a5.8,5.8,0,0,1-2.382,2.738,7.068,7.068,0,0,1-3.75,1,6.826,6.826,0,0,1-2.795-.556,6.291,6.291,0,0,1-2.153-1.554,7.11,7.11,0,0,1-1.4-2.4,9.94,9.94,0,0,1,.057-6.388,7.606,7.606,0,0,1,1.554-2.553,6.85,6.85,0,0,1,2.4-1.654,7.985,7.985,0,0,1,3.109-.585,5.536,5.536,0,0,1,4.307,1.626,7.131,7.131,0,0,1,1.54,4.82Zm-5.9-5.732a3.867,3.867,0,0,0-3.023,1.269,6.508,6.508,0,0,0-1.426,3.665l7.472-.256a1.943,1.943,0,0,0,.071-.5q.015-.328.014-.67Q258.969,197.471,255.86,197.471Zm18.51-.884a13.819,13.819,0,0,1,1.9.128,6.019,6.019,0,0,1,1.469.356v3.964h-.6q-.428-3.593-3.337-3.594a2.581,2.581,0,0,0-1.811.613,2.477,2.477,0,0,0-.143,3.223,4.921,4.921,0,0,0,1.312,1.013q.784.428,1.711.827a9.357,9.357,0,0,1,1.711.956,4.849,4.849,0,0,1,1.312,1.4,4.053,4.053,0,0,1,.528,2.182,4.268,4.268,0,0,1-1.412,3.379,5.606,5.606,0,0,1-3.836,1.241,13.171,13.171,0,0,1-2.011-.171,11.274,11.274,0,0,1-1.925-.456l-.171-4.62h.684q.4,4.393,3.651,4.392a2.9,2.9,0,0,0,2.053-.713,2.477,2.477,0,0,0,.77-1.911,2.442,2.442,0,0,0-.527-1.626,5.087,5.087,0,0,0-1.326-1.1,17.122,17.122,0,0,0-1.725-.884,10.5,10.5,0,0,1-1.725-.969,4.913,4.913,0,0,1-1.326-1.369,3.786,3.786,0,0,1-.528-2.1,3.7,3.7,0,0,1,1.369-3.08A6.219,6.219,0,0,1,274.37,196.587Zm16.684,0a13.815,13.815,0,0,1,1.9.128,6.016,6.016,0,0,1,1.469.356v3.964h-.6q-.428-3.593-3.337-3.594a2.582,2.582,0,0,0-1.811.613,2.477,2.477,0,0,0-.142,3.223,4.916,4.916,0,0,0,1.312,1.013q.784.428,1.711.827a9.325,9.325,0,0,1,1.711.956,4.851,4.851,0,0,1,1.312,1.4,4.051,4.051,0,0,1,.528,2.182,4.268,4.268,0,0,1-1.412,3.379,5.606,5.606,0,0,1-3.836,1.241,13.171,13.171,0,0,1-2.01-.171,11.275,11.275,0,0,1-1.925-.456l-.171-4.62h.685q.4,4.393,3.65,4.392a2.9,2.9,0,0,0,2.053-.713,2.477,2.477,0,0,0,.77-1.911,2.441,2.441,0,0,0-.528-1.626,5.085,5.085,0,0,0-1.326-1.1,17.176,17.176,0,0,0-1.725-.884,10.49,10.49,0,0,1-1.726-.969,4.92,4.92,0,0,1-1.326-1.369,3.788,3.788,0,0,1-.528-2.1,3.7,3.7,0,0,1,1.369-3.08A6.221,6.221,0,0,1,291.054,196.587ZM1.321,262.668l2.424-.542V242.561l-2.424-.542v-.656H9.905a10.825,10.825,0,0,1,3.08.414,7.251,7.251,0,0,1,2.41,1.2,5.335,5.335,0,0,1,1.569,1.954,6.171,6.171,0,0,1,.556,2.681,4.937,4.937,0,0,1-1.255,3.493,6.826,6.826,0,0,1-3.536,1.9l6.075,9.126,3.251.542v.656H15.866l-6.388-9.982H6.74v8.784l3.251.542v.656H1.321Zm7.273-10.438a7.774,7.774,0,0,0,2.823-.414,4.559,4.559,0,0,0,1.683-1.127,4.156,4.156,0,0,0,.884-1.583,6.267,6.267,0,0,0,.257-1.783,5.445,5.445,0,0,0-.684-2.866,3.813,3.813,0,0,0-1.939-1.612,4.1,4.1,0,0,0-1.069-.271,12.482,12.482,0,0,0-1.469-.071H6.74v9.726Zm30.972,2.31H29.156v.656A7.626,7.626,0,0,0,30.4,259.93a4.388,4.388,0,0,0,3.693,1.6,6.679,6.679,0,0,0,2.6-.5,4.843,4.843,0,0,0,1.939-1.412l.342-.428.485.285-.171.4a5.8,5.8,0,0,1-2.381,2.738,7.069,7.069,0,0,1-3.75,1,6.822,6.822,0,0,1-2.795-.556A6.288,6.288,0,0,1,28.2,261.5a7.1,7.1,0,0,1-1.4-2.4,9.941,9.941,0,0,1,.057-6.389,7.608,7.608,0,0,1,1.554-2.552,6.849,6.849,0,0,1,2.4-1.654,7.979,7.979,0,0,1,3.109-.585,5.536,5.536,0,0,1,4.306,1.626,7.131,7.131,0,0,1,1.54,4.82Zm-5.9-5.733a3.868,3.868,0,0,0-3.023,1.269,6.508,6.508,0,0,0-1.426,3.665l7.472-.257a1.934,1.934,0,0,0,.071-.5q.014-.328.014-.67Q36.771,248.807,33.662,248.807Zm17.825,21.932a13.164,13.164,0,0,1-2.253-.214,6.193,6.193,0,0,1-2.168-.784,3.891,3.891,0,0,1-1.2-1.127A2.794,2.794,0,0,1,45.412,267a3.068,3.068,0,0,1,.784-2.053,7.451,7.451,0,0,1,2.752-1.74q-1.939-.856-1.939-2.339a2.464,2.464,0,0,1,.143-.77,2.557,2.557,0,0,1,.556-.884,5.307,5.307,0,0,1,1.155-.913,8.685,8.685,0,0,1,1.911-.827,5.656,5.656,0,0,1-2.752-1.669,4.315,4.315,0,0,1-1.1-3.009,4.484,4.484,0,0,1,.428-1.954,4.665,4.665,0,0,1,1.169-1.54,5.581,5.581,0,0,1,1.754-1.012,6.293,6.293,0,0,1,2.182-.371,6.523,6.523,0,0,1,1.811.242,6,6,0,0,1,1.526.67,9.472,9.472,0,0,1,.428-1.055,5.788,5.788,0,0,1,.6-1,3.041,3.041,0,0,1,.784-.742,1.932,1.932,0,0,1,2.167.1,1.245,1.245,0,0,1,.5,1.041,1.315,1.315,0,0,1-1.34,1.341.87.87,0,0,1-.485-.114,1.571,1.571,0,0,1-.3-.257,2.257,2.257,0,0,0-.271-.257.623.623,0,0,0-.4-.114.817.817,0,0,0-.642.442,3.148,3.148,0,0,0-.442,1.013,4.989,4.989,0,0,1,1.3,1.626,4.288,4.288,0,0,1,.471,1.939,4.168,4.168,0,0,1-.414,1.811,4.96,4.96,0,0,1-1.169,1.555,6.6,6.6,0,0,1-1.8,1.141,6.832,6.832,0,0,1-2.3.542,7.613,7.613,0,0,0-1.1.2,4.288,4.288,0,0,0-1,.385,2.709,2.709,0,0,0-.713.542.975.975,0,0,0-.271.67,1.1,1.1,0,0,0,.684.97,7.579,7.579,0,0,0,1.64.628,20.3,20.3,0,0,0,2.011.428q1.055.171,1.8.342a6.322,6.322,0,0,1,1.882.684,3.9,3.9,0,0,1,1.1.927,2.747,2.747,0,0,1,.513,1.027,4.284,4.284,0,0,1,.128,1.012,3.93,3.93,0,0,1-.428,1.882,4.4,4.4,0,0,1-1.141,1.369,6.355,6.355,0,0,1-1.34.827,10.4,10.4,0,0,1-1.554.57,10.945,10.945,0,0,1-1.626.328A13.012,13.012,0,0,1,51.487,270.739Zm1.169-6.588q-.742-.143-1.469-.314t-1.3-.342a3.768,3.768,0,0,0-1.583,1.312,3.221,3.221,0,0,0-.585,1.854,2.789,2.789,0,0,0,.342,1.383,2.82,2.82,0,0,0,.97,1.012,5.26,5.26,0,0,0,2.995.77,8.941,8.941,0,0,0,1.725-.171,6.1,6.1,0,0,0,1.554-.514,3.37,3.37,0,0,0,1.2-.97,2.285,2.285,0,0,0,.456-1.426,1.627,1.627,0,0,0-.9-1.554,5.766,5.766,0,0,0-1.326-.542Q53.911,264.407,52.656,264.151Zm-.171-7.215a2.2,2.2,0,0,0,1.34-.4,2.853,2.853,0,0,0,.856-1.013,4.723,4.723,0,0,0,.442-1.355,8.366,8.366,0,0,0,.128-1.426,9.043,9.043,0,0,0-.1-1.269,4.652,4.652,0,0,0-.385-1.312,2.834,2.834,0,0,0-.8-1.027,2.072,2.072,0,0,0-1.34-.413,2.138,2.138,0,0,0-1.4.442,2.977,2.977,0,0,0-.841,1.112,5.487,5.487,0,0,0-.414,1.412,8.9,8.9,0,0,0-.114,1.341,8.752,8.752,0,0,0,.1,1.255,4.044,4.044,0,0,0,.4,1.269,2.987,2.987,0,0,0,.8.984A2.061,2.061,0,0,0,52.485,256.935Zm16.37,6.674a3.3,3.3,0,0,1-2.481-.97,3.453,3.453,0,0,1-.941-2.51,3.317,3.317,0,0,1,.413-1.668,3.964,3.964,0,0,1,1.34-1.326,10.8,10.8,0,0,1,2.424-1.1,34.405,34.405,0,0,1,3.636-.956v-2.795a4.65,4.65,0,0,0-.513-2.538,2,2,0,0,0-1.768-.741,2.969,2.969,0,0,0-1.939.584,1.94,1.94,0,0,0-.713,1.583,4.785,4.785,0,0,0,.029.5,4.791,4.791,0,0,1,.029.5,1.715,1.715,0,0,1-.414,1.2,1.377,1.377,0,0,1-1.069.456,1.275,1.275,0,0,1-.941-.371,1.35,1.35,0,0,1-.371-1,3.053,3.053,0,0,1,.841-1.939,7.089,7.089,0,0,1,2.239-1.711,7.784,7.784,0,0,1,3.622-.884,5.054,5.054,0,0,1,2.082.385,2.419,2.419,0,0,1,1.226,1.126,3.479,3.479,0,0,1,.185.528,4.633,4.633,0,0,1,.114.684q.043.414.057,1.027t.014,1.5V259.7a5.542,5.542,0,0,0,.214,1.911.829.829,0,0,0,.841.485,1.375,1.375,0,0,0,.713-.185,2.748,2.748,0,0,0,.684-.642l.485.428a4.671,4.671,0,0,1-1.355,1.469,2.948,2.948,0,0,1-1.611.442q-2.253,0-2.538-2.567l-.086-.057a6.251,6.251,0,0,1-2.011,1.925A4.739,4.739,0,0,1,68.856,263.609Zm1.255-1.683a3.315,3.315,0,0,0,1.74-.5,4.223,4.223,0,0,0,1.4-1.412v-4.107q-1.511.313-2.524.627a5.905,5.905,0,0,0-1.626.741,2.517,2.517,0,0,0-.87.97,2.973,2.973,0,0,0-.257,1.284,2.567,2.567,0,0,0,.556,1.782A2.027,2.027,0,0,0,70.111,261.926Zm21.818.827v.57H84.2v-.57l2.167-.428V250.461l-2.11-.8v-.371l4.421-1.4h.285v3.137a10.289,10.289,0,0,1,2-2.324,3.08,3.08,0,0,1,1.911-.813,1.8,1.8,0,0,1,1.8,1.8,1.57,1.57,0,0,1-.471,1.155,1.6,1.6,0,0,1-1.184.471,1.276,1.276,0,0,1-1.084-.542,1.975,1.975,0,0,0-.442-.428.824.824,0,0,0-.442-.114,1.43,1.43,0,0,0-1.141.713q-.485.656-.627.884a1.537,1.537,0,0,0-.2.485v10.01Zm14.317.856a4.947,4.947,0,0,1-2.339-.57,5.863,5.863,0,0,1-1.882-1.583,7.5,7.5,0,0,1-1.241-2.41,9.972,9.972,0,0,1-.442-3.023,9.5,9.5,0,0,1,.542-3.28,7.425,7.425,0,0,1,1.54-2.552,7.086,7.086,0,0,1,2.367-1.668,7.534,7.534,0,0,1,3.052-.6,11.257,11.257,0,0,1,3.08.428v-6.132l-2.082-.8v-.371l4.478-1.4h.285V261.1l1.939.428v.314l-4.221,1.768h-.2v-2.453l-.114-.057a5.88,5.88,0,0,1-2.125,1.9A5.766,5.766,0,0,1,106.245,263.609Zm1.2-1.854a4.642,4.642,0,0,0,2.053-.456,3.368,3.368,0,0,0,1.426-1.226v-8.157q0-3.137-3.137-3.137a3.468,3.468,0,0,0-1.811.485,4.352,4.352,0,0,0-1.4,1.369,7.115,7.115,0,0,0-.913,2.139,11.058,11.058,0,0,0-.328,2.8,8.2,8.2,0,0,0,1.084,4.535A3.421,3.421,0,0,0,107.443,261.755Z" transform="translate(8.562 164.751)" fill="#9e9179"/>
    <path id="パス_53" data-name="パス 53" d="M295.756,26.953l14.118-2.438v-88.3h-25.8a69.821,69.821,0,0,0-6.995,11.55,113.2,113.2,0,0,0-4.812,11.551h-3.08l4.749-28.235H358.9l4.749,28.235h-3.08a113.181,113.181,0,0,0-4.812-11.551,69.824,69.824,0,0,0-6.995-11.55H323.349v88.3l13.989,2.438V29.9H295.756ZM437.7-70.2a44.13,44.13,0,0,1,18.481,3.85A45.589,45.589,0,0,1,470.939-55.7a49.067,49.067,0,0,1,9.818,16.107,56.168,56.168,0,0,1,3.529,20.085A56.168,56.168,0,0,1,480.757.579a49.067,49.067,0,0,1-9.818,16.107A45.589,45.589,0,0,1,456.18,27.338a44.129,44.129,0,0,1-18.481,3.85,44.131,44.131,0,0,1-18.481-3.85A45.59,45.59,0,0,1,404.46,16.686,49.068,49.068,0,0,1,394.642.579a56.173,56.173,0,0,1-3.529-20.085,56.173,56.173,0,0,1,3.529-20.085A49.068,49.068,0,0,1,404.46-55.7,45.589,45.589,0,0,1,419.218-66.35,44.132,44.132,0,0,1,437.7-70.2ZM407.283-19.634A79.146,79.146,0,0,0,409.337-.769a43.4,43.4,0,0,0,6.032,14.181,27.838,27.838,0,0,0,9.561,8.92,25.993,25.993,0,0,0,12.77,3.08,26.1,26.1,0,0,0,12.706-3.08,27.645,27.645,0,0,0,9.625-8.92A43.374,43.374,0,0,0,466.062-.833a80.572,80.572,0,0,0,2.053-19.058,78.344,78.344,0,0,0-2.053-18.8,42.76,42.76,0,0,0-5.968-13.989,26.912,26.912,0,0,0-9.561-8.727,26.541,26.541,0,0,0-12.706-3.016,26.815,26.815,0,0,0-12.834,3.016,27.245,27.245,0,0,0-9.625,8.791A42.638,42.638,0,0,0,409.337-38.5,79.146,79.146,0,0,0,407.283-19.634Zm108.19,46.587,10.908-2.438V-63.526l-10.908-2.438v-2.952H554.1a48.72,48.72,0,0,1,13.861,1.861,32.628,32.628,0,0,1,10.844,5.39,24,24,0,0,1,7.058,8.791,27.761,27.761,0,0,1,2.5,12.064q0,9.625-5.647,15.722t-15.914,8.535l27.337,41.068,14.63,2.438V29.9h-27.85L552.178-15.014H539.857V24.514l14.631,2.438V29.9H515.473ZM548.2-20.019q8.086,0,12.706-1.861a20.507,20.507,0,0,0,7.572-5.069,18.7,18.7,0,0,0,3.978-7.123,28.187,28.187,0,0,0,1.155-8.021q0-7.829-3.08-12.9a17.15,17.15,0,0,0-8.727-7.251,18.453,18.453,0,0,0-4.813-1.219,56.211,56.211,0,0,0-6.61-.321H539.857v43.764Z" transform="translate(108.897 70.2)" fill="#9e9179"/>
    <path id="パス_52" data-name="パス 52" d="M4.41-68.917H44.324a47.2,47.2,0,0,1,13.861,1.925,31.5,31.5,0,0,1,10.845,5.647,25.172,25.172,0,0,1,7.059,9.24,30.144,30.144,0,0,1,2.5,12.577,25.906,25.906,0,0,1-2.5,11.615A23.373,23.373,0,0,1,68.9-19.378a32.675,32.675,0,0,1-11.422,5.2A60.6,60.6,0,0,1,42.4-12.447h-13.6V24.514l14.631,2.438V29.9H4.41V26.953l10.909-2.438V-63.526L4.41-65.965ZM28.794-17.453H38.42q8.085,0,12.77-1.8A18.082,18.082,0,0,0,58.7-24.383a18.079,18.079,0,0,0,4.043-7.636,35.607,35.607,0,0,0,1.091-8.791q0-8.342-3.08-13.8a16.707,16.707,0,0,0-8.727-7.636,18.457,18.457,0,0,0-4.813-1.219,56.217,56.217,0,0,0-6.609-.321H28.794Zm79.057,44.405,10.909-2.438V-63.526l-10.909-2.438v-2.952h38.63a48.717,48.717,0,0,1,13.861,1.861,32.622,32.622,0,0,1,10.845,5.39,24,24,0,0,1,7.059,8.791,27.769,27.769,0,0,1,2.5,12.064q0,9.625-5.647,15.722t-15.914,8.535l27.336,41.068,14.631,2.438V29.9H173.3L144.556-15.014H132.236V24.514l14.631,2.438V29.9H107.851Zm32.726-46.972q8.085,0,12.706-1.861a20.5,20.5,0,0,0,7.572-5.069,18.7,18.7,0,0,0,3.979-7.123,28.191,28.191,0,0,0,1.155-8.021q0-7.829-3.08-12.9a17.152,17.152,0,0,0-8.727-7.251,18.456,18.456,0,0,0-4.813-1.219,56.213,56.213,0,0,0-6.609-.321H132.236v43.764ZM267.12-70.2A44.133,44.133,0,0,1,285.6-66.35,45.588,45.588,0,0,1,300.36-55.7a49.07,49.07,0,0,1,9.818,16.107,56.176,56.176,0,0,1,3.529,20.085A56.175,56.175,0,0,1,310.178.579a49.071,49.071,0,0,1-9.818,16.107A45.588,45.588,0,0,1,285.6,27.338a44.132,44.132,0,0,1-18.481,3.85,44.132,44.132,0,0,1-18.481-3.85A45.588,45.588,0,0,1,233.88,16.686,49.065,49.065,0,0,1,224.062.579a56.167,56.167,0,0,1-3.529-20.085,56.167,56.167,0,0,1,3.529-20.085A49.065,49.065,0,0,1,233.88-55.7,45.588,45.588,0,0,1,248.639-66.35,44.132,44.132,0,0,1,267.12-70.2ZM236.7-19.634A79.14,79.14,0,0,0,238.757-.769a43.4,43.4,0,0,0,6.032,14.181,27.84,27.84,0,0,0,9.561,8.92,25.994,25.994,0,0,0,12.77,3.08,26.094,26.094,0,0,0,12.705-3.08,27.643,27.643,0,0,0,9.625-8.92A43.378,43.378,0,0,0,295.483-.833a80.572,80.572,0,0,0,2.053-19.058,78.344,78.344,0,0,0-2.053-18.8,42.765,42.765,0,0,0-5.968-13.989,26.913,26.913,0,0,0-9.561-8.727,26.542,26.542,0,0,0-12.706-3.016,26.816,26.816,0,0,0-12.834,3.016,27.246,27.246,0,0,0-9.625,8.791A42.637,42.637,0,0,0,238.757-38.5,79.14,79.14,0,0,0,236.7-19.634Z" transform="translate(396.806 227.06)" fill="#fff"/>
    <path id="パス_51" data-name="パス 51" d="M.98-14.889H9.85a10.488,10.488,0,0,1,3.08.428,7,7,0,0,1,2.41,1.255,5.594,5.594,0,0,1,1.569,2.053,6.7,6.7,0,0,1,.556,2.795,5.757,5.757,0,0,1-.556,2.581,5.194,5.194,0,0,1-1.6,1.9,7.261,7.261,0,0,1-2.538,1.155,13.468,13.468,0,0,1-3.351.385H6.4V5.874l3.251.542v.656H.98V6.415L3.4,5.874V-13.691L.98-14.233ZM6.4-3.452H8.538a8.145,8.145,0,0,0,2.838-.4,4.018,4.018,0,0,0,1.668-1.141,4.018,4.018,0,0,0,.9-1.7,7.912,7.912,0,0,0,.242-1.954,6.175,6.175,0,0,0-.684-3.066,3.713,3.713,0,0,0-1.939-1.7,4.1,4.1,0,0,0-1.069-.271,12.5,12.5,0,0,0-1.469-.071H6.4ZM31.411,6.5v.57H23.682V6.5l2.167-.428V-5.791l-2.11-.8V-6.96l4.421-1.4h.285v3.137a10.292,10.292,0,0,1,2-2.324,3.081,3.081,0,0,1,1.911-.813,1.73,1.73,0,0,1,1.269.528,1.73,1.73,0,0,1,.528,1.269,1.57,1.57,0,0,1-.471,1.155,1.6,1.6,0,0,1-1.184.471,1.276,1.276,0,0,1-1.084-.542,1.98,1.98,0,0,0-.442-.428.827.827,0,0,0-.442-.114,1.431,1.431,0,0,0-1.141.713q-.485.656-.627.884a1.539,1.539,0,0,0-.2.485V6.073ZM47.268-8.329a7.39,7.39,0,0,1,2.995.6,7.289,7.289,0,0,1,2.367,1.64A7.563,7.563,0,0,1,54.2-3.609a8.406,8.406,0,0,1,.57,3.123,8.406,8.406,0,0,1-.57,3.123,7.729,7.729,0,0,1-1.569,2.5,7.009,7.009,0,0,1-2.367,1.64,7.545,7.545,0,0,1-2.995.585,7.545,7.545,0,0,1-2.995-.585,7.009,7.009,0,0,1-2.367-1.64,7.728,7.728,0,0,1-1.569-2.5,8.4,8.4,0,0,1-.57-3.123,8.4,8.4,0,0,1,.57-3.123A7.562,7.562,0,0,1,41.906-6.09a7.289,7.289,0,0,1,2.367-1.64A7.39,7.39,0,0,1,47.268-8.329ZM42.79-.486a8.47,8.47,0,0,0,1.184,4.834,3.749,3.749,0,0,0,3.266,1.725,3.8,3.8,0,0,0,3.308-1.74,8.462,8.462,0,0,0,1.2-4.848A8.411,8.411,0,0,0,50.562-5.32a3.775,3.775,0,0,0-3.294-1.725A3.775,3.775,0,0,0,43.974-5.32,8.47,8.47,0,0,0,42.79-.486ZM61.214-8.044h2.167q0-2.053.071-3.18a6.392,6.392,0,0,1,.356-1.868,4.354,4.354,0,0,1,.856-1.44,5.839,5.839,0,0,1,1.312-1.1,6.715,6.715,0,0,1,1.6-.713,6.121,6.121,0,0,1,1.768-.257,5.383,5.383,0,0,1,1.44.185,4.377,4.377,0,0,1,1.169.5,2.431,2.431,0,0,1,.784.77,1.8,1.8,0,0,1,.285.97,1.369,1.369,0,0,1-.385,1.012,1.369,1.369,0,0,1-1.012.385,1.083,1.083,0,0,1-1-.456,3.056,3.056,0,0,1-.4-1,2.459,2.459,0,0,0-.442-1.127,1.219,1.219,0,0,0-.984-.357,2.343,2.343,0,0,0-1.212.328,2.314,2.314,0,0,0-.9,1.069,5.9,5.9,0,0,0-.456,1.754,24.044,24.044,0,0,0-.143,2.952v1.569H69.77l-.342.913H66.091V6.1l3.023.428v.542H61.242V6.53L63.381,6.1V-7.131h-2.51ZM88.735-1.713H78.326v.656a7.626,7.626,0,0,0,1.241,4.734,4.388,4.388,0,0,0,3.693,1.6,6.68,6.68,0,0,0,2.6-.5,4.844,4.844,0,0,0,1.939-1.412l.342-.428.485.285-.171.4a5.8,5.8,0,0,1-2.381,2.738,7.068,7.068,0,0,1-3.75,1A6.825,6.825,0,0,1,79.523,6.8,6.289,6.289,0,0,1,77.37,5.246a7.107,7.107,0,0,1-1.4-2.4,9.192,9.192,0,0,1-.5-3.109,9.276,9.276,0,0,1,.556-3.28A7.607,7.607,0,0,1,77.584-6.09a6.849,6.849,0,0,1,2.4-1.654,7.98,7.98,0,0,1,3.109-.585A5.535,5.535,0,0,1,87.4-6.7a7.131,7.131,0,0,1,1.54,4.82Zm-5.9-5.732a3.868,3.868,0,0,0-3.023,1.269,6.509,6.509,0,0,0-1.426,3.665l7.472-.257a1.932,1.932,0,0,0,.071-.5q.014-.328.014-.67Q85.94-7.445,82.832-7.445Zm18.509-.884a13.812,13.812,0,0,1,1.9.128,6.022,6.022,0,0,1,1.469.356V-3.88h-.6q-.428-3.593-3.337-3.593a2.58,2.58,0,0,0-1.811.613,2.185,2.185,0,0,0-.67,1.7,2.19,2.19,0,0,0,.528,1.526,4.917,4.917,0,0,0,1.312,1.012q.784.428,1.711.827a9.326,9.326,0,0,1,1.711.955,4.851,4.851,0,0,1,1.312,1.4,4.051,4.051,0,0,1,.528,2.182,4.268,4.268,0,0,1-1.412,3.38,5.607,5.607,0,0,1-3.836,1.241,13.14,13.14,0,0,1-2.011-.171,11.262,11.262,0,0,1-1.925-.456l-.171-4.62h.684q.4,4.392,3.651,4.392a2.9,2.9,0,0,0,2.053-.713,2.479,2.479,0,0,0,.77-1.911,2.44,2.44,0,0,0-.528-1.626,5.08,5.08,0,0,0-1.326-1.1A17.211,17.211,0,0,0,99.616.269,10.489,10.489,0,0,1,97.89-.7a4.914,4.914,0,0,1-1.326-1.369,3.787,3.787,0,0,1-.528-2.1,3.7,3.7,0,0,1,1.369-3.08A6.219,6.219,0,0,1,101.341-8.329Zm16.684,0a13.816,13.816,0,0,1,1.9.128,6.024,6.024,0,0,1,1.469.356V-3.88h-.6q-.428-3.593-3.337-3.593a2.58,2.58,0,0,0-1.811.613,2.185,2.185,0,0,0-.67,1.7,2.19,2.19,0,0,0,.528,1.526,4.917,4.917,0,0,0,1.312,1.012q.784.428,1.711.827a9.325,9.325,0,0,1,1.711.955,4.853,4.853,0,0,1,1.312,1.4,4.052,4.052,0,0,1,.528,2.182,4.268,4.268,0,0,1-1.412,3.38,5.607,5.607,0,0,1-3.836,1.241,13.141,13.141,0,0,1-2.011-.171,11.261,11.261,0,0,1-1.925-.456l-.171-4.62h.685q.4,4.392,3.651,4.392a2.9,2.9,0,0,0,2.053-.713,2.478,2.478,0,0,0,.77-1.911,2.44,2.44,0,0,0-.528-1.626,5.079,5.079,0,0,0-1.326-1.1A17.2,17.2,0,0,0,116.3.269a10.485,10.485,0,0,1-1.726-.97,4.914,4.914,0,0,1-1.326-1.369,3.787,3.787,0,0,1-.528-2.1,3.7,3.7,0,0,1,1.369-3.08A6.219,6.219,0,0,1,118.025-8.329Zm12.292-4.991a1.853,1.853,0,0,1,.5-1.326,1.739,1.739,0,0,1,1.326-.528,1.775,1.775,0,0,1,1.355.528,1.854,1.854,0,0,1,.5,1.326,1.831,1.831,0,0,1-.5,1.283,1.751,1.751,0,0,1-1.355.542,1.716,1.716,0,0,1-1.326-.542A1.831,1.831,0,0,1,130.317-13.32ZM135.651,6.5v.57h-7.016V6.5l2.167-.428V-5.791l-2.11-.77v-.4l4.563-1.369h.257v14.4Zm13.718-14.83a7.39,7.39,0,0,1,2.995.6,7.288,7.288,0,0,1,2.367,1.64A7.562,7.562,0,0,1,156.3-3.609a8.408,8.408,0,0,1,.57,3.123,8.408,8.408,0,0,1-.57,3.123,7.728,7.728,0,0,1-1.569,2.5,7.008,7.008,0,0,1-2.367,1.64,7.545,7.545,0,0,1-2.995.585,7.546,7.546,0,0,1-2.995-.585,7.011,7.011,0,0,1-2.367-1.64,7.728,7.728,0,0,1-1.568-2.5,8.4,8.4,0,0,1-.57-3.123,8.4,8.4,0,0,1,.57-3.123,7.562,7.562,0,0,1,1.568-2.481,7.291,7.291,0,0,1,2.367-1.64A7.39,7.39,0,0,1,149.369-8.329ZM144.891-.486a8.47,8.47,0,0,0,1.184,4.834,3.749,3.749,0,0,0,3.265,1.725,3.8,3.8,0,0,0,3.308-1.74,8.462,8.462,0,0,0,1.2-4.848,8.411,8.411,0,0,0-1.184-4.806,3.775,3.775,0,0,0-3.294-1.725,3.775,3.775,0,0,0-3.294,1.725A8.47,8.47,0,0,0,144.891-.486ZM170.331,6.5v.57h-7.016V6.5l2.167-.428V-5.762l-2.11-.8v-.371l4.421-1.4h.285v2.424a9.437,9.437,0,0,1,2.61-1.8,6.618,6.618,0,0,1,2.752-.627,4.352,4.352,0,0,1,2.025.456,2.831,2.831,0,0,1,1.283,1.255,2.571,2.571,0,0,1,.185.5,4.692,4.692,0,0,1,.114.727q.043.456.057,1.127t.014,1.7V6.1l2.139.4v.57H172.27V6.5l2.139-.4V-2.283q0-1.226-.071-1.954a4.324,4.324,0,0,0-.271-1.212,2.159,2.159,0,0,0-2.225-1.312,4.457,4.457,0,0,0-1.968.456,5.254,5.254,0,0,0-1.683,1.312V6.073ZM.98,57.751,3.4,57.209V37.645L.98,37.1v-.656H9.564a10.825,10.825,0,0,1,3.08.414,7.249,7.249,0,0,1,2.41,1.2,5.333,5.333,0,0,1,1.569,1.954,6.171,6.171,0,0,1,.556,2.681,4.937,4.937,0,0,1-1.255,3.494,6.824,6.824,0,0,1-3.536,1.9l6.075,9.126,3.251.542v.656H15.525L9.137,48.425H6.4v8.784l3.251.542v.656H.98ZM8.253,47.313a7.767,7.767,0,0,0,2.823-.414,4.557,4.557,0,0,0,1.683-1.127,4.156,4.156,0,0,0,.884-1.583,6.266,6.266,0,0,0,.257-1.782,5.445,5.445,0,0,0-.684-2.866,3.812,3.812,0,0,0-1.939-1.611,4.1,4.1,0,0,0-1.069-.271,12.492,12.492,0,0,0-1.469-.071H6.4v9.725Zm30.973,2.31H28.815v.656a7.626,7.626,0,0,0,1.241,4.734,4.388,4.388,0,0,0,3.693,1.6,6.68,6.68,0,0,0,2.6-.5A4.845,4.845,0,0,0,38.284,54.7l.342-.428.485.285-.171.4a5.8,5.8,0,0,1-2.381,2.738,7.068,7.068,0,0,1-3.75,1,6.825,6.825,0,0,1-2.795-.556,6.289,6.289,0,0,1-2.153-1.554,7.106,7.106,0,0,1-1.4-2.4,9.94,9.94,0,0,1,.057-6.388,7.606,7.606,0,0,1,1.554-2.552,6.849,6.849,0,0,1,2.4-1.654,7.98,7.98,0,0,1,3.109-.585,5.535,5.535,0,0,1,4.306,1.626,7.131,7.131,0,0,1,1.54,4.82Zm-5.9-5.732A3.868,3.868,0,0,0,30.3,45.16a6.509,6.509,0,0,0-1.426,3.665l7.472-.257a1.934,1.934,0,0,0,.071-.5q.014-.328.014-.67Q36.43,43.89,33.321,43.89ZM51.146,65.822a13.188,13.188,0,0,1-2.253-.214,6.192,6.192,0,0,1-2.168-.784,3.892,3.892,0,0,1-1.2-1.126,2.794,2.794,0,0,1-.456-1.611,3.069,3.069,0,0,1,.784-2.053,7.452,7.452,0,0,1,2.752-1.74q-1.939-.856-1.939-2.339a2.464,2.464,0,0,1,.143-.77,2.558,2.558,0,0,1,.556-.884,5.313,5.313,0,0,1,1.155-.913,8.69,8.69,0,0,1,1.911-.827,5.658,5.658,0,0,1-2.752-1.668,4.315,4.315,0,0,1-1.1-3.009,4.485,4.485,0,0,1,.428-1.954,4.667,4.667,0,0,1,1.169-1.54,5.585,5.585,0,0,1,1.754-1.012,6.3,6.3,0,0,1,2.182-.371,6.515,6.515,0,0,1,1.811.242,5.991,5.991,0,0,1,1.526.67,9.452,9.452,0,0,1,.428-1.055,5.785,5.785,0,0,1,.6-1,3.041,3.041,0,0,1,.784-.742,1.932,1.932,0,0,1,2.168.1,1.246,1.246,0,0,1,.5,1.041,1.315,1.315,0,0,1-1.34,1.34.871.871,0,0,1-.485-.114,1.579,1.579,0,0,1-.3-.257,2.284,2.284,0,0,0-.271-.257.624.624,0,0,0-.4-.114.817.817,0,0,0-.642.442,3.15,3.15,0,0,0-.442,1.012,4.985,4.985,0,0,1,1.3,1.626,4.288,4.288,0,0,1,.471,1.939,4.17,4.17,0,0,1-.414,1.811,4.962,4.962,0,0,1-1.169,1.554,6.6,6.6,0,0,1-1.8,1.141,6.834,6.834,0,0,1-2.3.542,7.639,7.639,0,0,0-1.1.2,4.277,4.277,0,0,0-1,.385,2.7,2.7,0,0,0-.713.542.974.974,0,0,0-.271.67,1.1,1.1,0,0,0,.684.97,7.576,7.576,0,0,0,1.64.627,20.217,20.217,0,0,0,2.011.428q1.055.171,1.8.342a6.317,6.317,0,0,1,1.882.684,3.894,3.894,0,0,1,1.1.927,2.745,2.745,0,0,1,.513,1.027,4.282,4.282,0,0,1,.128,1.012,3.93,3.93,0,0,1-.428,1.882A4.393,4.393,0,0,1,57.25,64a6.345,6.345,0,0,1-1.34.827,10.412,10.412,0,0,1-1.554.57,10.949,10.949,0,0,1-1.626.328A12.973,12.973,0,0,1,51.146,65.822Zm1.169-6.588q-.742-.143-1.469-.314t-1.3-.342a3.77,3.77,0,0,0-1.583,1.312,3.221,3.221,0,0,0-.585,1.854,2.789,2.789,0,0,0,.342,1.383,2.82,2.82,0,0,0,.97,1.012,5.26,5.26,0,0,0,2.995.77,8.917,8.917,0,0,0,1.725-.171,6.089,6.089,0,0,0,1.554-.513,3.371,3.371,0,0,0,1.2-.97,2.285,2.285,0,0,0,.456-1.426,1.628,1.628,0,0,0-.9-1.554,5.769,5.769,0,0,0-1.326-.542Q53.571,59.491,52.316,59.234Zm-.171-7.216a2.2,2.2,0,0,0,1.34-.4,2.851,2.851,0,0,0,.856-1.012,4.724,4.724,0,0,0,.442-1.355,8.365,8.365,0,0,0,.128-1.426,9.045,9.045,0,0,0-.1-1.269,4.652,4.652,0,0,0-.385-1.312,2.832,2.832,0,0,0-.8-1.027,2.071,2.071,0,0,0-1.34-.414,2.14,2.14,0,0,0-1.4.442,2.979,2.979,0,0,0-.841,1.112,5.49,5.49,0,0,0-.414,1.412,8.894,8.894,0,0,0-.114,1.34,8.749,8.749,0,0,0,.1,1.255,4.042,4.042,0,0,0,.4,1.269,2.987,2.987,0,0,0,.8.984A2.061,2.061,0,0,0,52.145,52.019Zm26.124-2.4H67.859v.656A7.626,7.626,0,0,0,69.1,55.013a4.388,4.388,0,0,0,3.693,1.6,6.68,6.68,0,0,0,2.6-.5A4.844,4.844,0,0,0,77.327,54.7l.342-.428.485.285-.171.4A5.8,5.8,0,0,1,75.6,57.694a7.068,7.068,0,0,1-3.75,1,6.824,6.824,0,0,1-2.795-.556A6.289,6.289,0,0,1,66.9,56.582a7.106,7.106,0,0,1-1.4-2.4,9.941,9.941,0,0,1,.057-6.388,7.605,7.605,0,0,1,1.554-2.552,6.85,6.85,0,0,1,2.4-1.654,7.98,7.98,0,0,1,3.109-.585,5.535,5.535,0,0,1,4.306,1.626,7.131,7.131,0,0,1,1.54,4.82Zm-5.9-5.732a3.868,3.868,0,0,0-3.023,1.269,6.509,6.509,0,0,0-1.426,3.665l7.472-.257a1.932,1.932,0,0,0,.071-.5q.014-.328.014-.67Q75.474,43.89,72.365,43.89Zm19.45,13.946v.57H84.8v-.57l2.167-.428V45.573l-2.11-.8V44.4l4.421-1.4h.285v2.424a9.439,9.439,0,0,1,2.61-1.8,6.618,6.618,0,0,1,2.752-.627,4.352,4.352,0,0,1,2.025.456,2.83,2.83,0,0,1,1.283,1.255,2.582,2.582,0,0,1,.185.5,4.728,4.728,0,0,1,.114.727q.043.456.057,1.127t.014,1.7v8.67l2.139.4v.57H93.755v-.57l2.139-.4V49.053q0-1.226-.071-1.954a4.325,4.325,0,0,0-.271-1.212,2.159,2.159,0,0,0-2.225-1.312,4.456,4.456,0,0,0-1.968.456,5.253,5.253,0,0,0-1.683,1.312V57.409Zm28.406-8.214h-10.41v.656a7.626,7.626,0,0,0,1.241,4.734,4.388,4.388,0,0,0,3.693,1.6,6.68,6.68,0,0,0,2.6-.5A4.845,4.845,0,0,0,119.28,54.7l.342-.428.485.285-.171.4a5.8,5.8,0,0,1-2.381,2.738,7.068,7.068,0,0,1-3.75,1,6.825,6.825,0,0,1-2.795-.556,6.289,6.289,0,0,1-2.153-1.554,7.105,7.105,0,0,1-1.4-2.4,9.94,9.94,0,0,1,.057-6.388,7.605,7.605,0,0,1,1.554-2.552,6.849,6.849,0,0,1,2.4-1.654,7.98,7.98,0,0,1,3.109-.585,5.535,5.535,0,0,1,4.307,1.626,7.131,7.131,0,0,1,1.54,4.82Zm-5.9-5.732a3.868,3.868,0,0,0-3.023,1.269,6.509,6.509,0,0,0-1.426,3.665l7.472-.257a1.929,1.929,0,0,0,.071-.5q.014-.328.014-.67Q117.426,43.89,114.318,43.89ZM134.51,57.837v.57h-7.729v-.57l2.168-.428V45.545l-2.111-.8v-.371l4.421-1.4h.285v3.137a10.294,10.294,0,0,1,2-2.324,3.081,3.081,0,0,1,1.911-.813,1.8,1.8,0,0,1,1.8,1.8,1.571,1.571,0,0,1-.471,1.155,1.605,1.605,0,0,1-1.184.471,1.275,1.275,0,0,1-1.084-.542,1.984,1.984,0,0,0-.442-.428.828.828,0,0,0-.442-.114,1.431,1.431,0,0,0-1.141.713q-.485.656-.627.884a1.541,1.541,0,0,0-.2.485v10.01Zm12.149.856a3.3,3.3,0,0,1-2.481-.97,3.453,3.453,0,0,1-.941-2.51,3.315,3.315,0,0,1,.414-1.668,3.967,3.967,0,0,1,1.34-1.326,10.8,10.8,0,0,1,2.424-1.1,34.367,34.367,0,0,1,3.636-.955V47.37a4.649,4.649,0,0,0-.513-2.538,2,2,0,0,0-1.768-.742,2.968,2.968,0,0,0-1.939.585,1.939,1.939,0,0,0-.713,1.583,4.794,4.794,0,0,0,.028.5,4.787,4.787,0,0,1,.029.5,1.715,1.715,0,0,1-.414,1.2,1.376,1.376,0,0,1-1.069.456,1.275,1.275,0,0,1-.941-.371,1.349,1.349,0,0,1-.371-1,3.053,3.053,0,0,1,.841-1.939,7.091,7.091,0,0,1,2.239-1.711,7.783,7.783,0,0,1,3.622-.884,5.057,5.057,0,0,1,2.082.385,2.419,2.419,0,0,1,1.226,1.127,3.482,3.482,0,0,1,.185.528,4.611,4.611,0,0,1,.114.684q.043.414.057,1.027t.014,1.5v6.531a5.543,5.543,0,0,0,.214,1.911.829.829,0,0,0,.841.485,1.374,1.374,0,0,0,.713-.185,2.755,2.755,0,0,0,.685-.642l.485.428a4.672,4.672,0,0,1-1.355,1.469,2.949,2.949,0,0,1-1.611.442q-2.253,0-2.538-2.567l-.086-.057a6.249,6.249,0,0,1-2.011,1.925A4.737,4.737,0,0,1,146.659,58.692Zm1.255-1.683a3.317,3.317,0,0,0,1.74-.5,4.223,4.223,0,0,0,1.4-1.412V50.992q-1.512.314-2.524.627a5.911,5.911,0,0,0-1.626.742,2.518,2.518,0,0,0-.87.97,2.971,2.971,0,0,0-.257,1.283,2.567,2.567,0,0,0,.556,1.782A2.028,2.028,0,0,0,147.914,57.01Zm19.08,1.683a3.129,3.129,0,0,1-2.224-.8,2.666,2.666,0,0,1-.727-1.212,7.572,7.572,0,0,1-.214-2.039V44.29h-1.854l-.057-.456,4.107-4.278.513.057v3.679h4.078l-.228,1h-3.85v10.1a12.956,12.956,0,0,0,.057,1.483,1.942,1.942,0,0,0,.2.684,1.527,1.527,0,0,0,1.426.8,2.429,2.429,0,0,0,1.155-.314,3.223,3.223,0,0,0,1.012-.856l.485.371a4.747,4.747,0,0,1-1.682,1.569A4.453,4.453,0,0,1,166.994,58.692Zm10.923-20.677a1.854,1.854,0,0,1,.5-1.326,1.74,1.74,0,0,1,1.326-.528,1.776,1.776,0,0,1,1.355.528,1.854,1.854,0,0,1,.5,1.326,1.831,1.831,0,0,1-.5,1.283,1.752,1.752,0,0,1-1.355.542,1.717,1.717,0,0,1-1.326-.542A1.832,1.832,0,0,1,177.917,38.015Zm5.333,19.821v.57h-7.016v-.57l2.167-.428V45.545l-2.111-.77v-.4l4.563-1.369h.257v14.4Zm13.718-14.83a7.39,7.39,0,0,1,2.995.6,7.289,7.289,0,0,1,2.367,1.64,7.564,7.564,0,0,1,1.569,2.481,8.835,8.835,0,0,1,0,6.246,7.731,7.731,0,0,1-1.569,2.5,7.01,7.01,0,0,1-2.367,1.64,7.961,7.961,0,0,1-5.989,0,7.007,7.007,0,0,1-2.367-1.64,7.728,7.728,0,0,1-1.569-2.5,8.835,8.835,0,0,1,0-6.246,7.561,7.561,0,0,1,1.569-2.481,7.286,7.286,0,0,1,2.367-1.64A7.388,7.388,0,0,1,196.968,43.006Zm-4.478,7.843a8.47,8.47,0,0,0,1.184,4.834,3.749,3.749,0,0,0,3.266,1.725,3.8,3.8,0,0,0,3.308-1.74,8.462,8.462,0,0,0,1.2-4.848,8.411,8.411,0,0,0-1.184-4.806,4.007,4.007,0,0,0-6.588,0A8.47,8.47,0,0,0,192.49,50.849Zm25.44,6.987v.57h-7.016v-.57l2.168-.428V45.573l-2.11-.8V44.4l4.421-1.4h.285v2.424a9.436,9.436,0,0,1,2.61-1.8,6.618,6.618,0,0,1,2.752-.627,4.351,4.351,0,0,1,2.025.456,2.831,2.831,0,0,1,1.283,1.255,2.577,2.577,0,0,1,.185.5,4.7,4.7,0,0,1,.114.727q.043.456.057,1.127t.014,1.7v8.67l2.139.4v.57H219.87v-.57l2.139-.4V49.053q0-1.226-.071-1.954a4.322,4.322,0,0,0-.271-1.212,2.159,2.159,0,0,0-2.225-1.312,4.456,4.456,0,0,0-1.968.456,5.254,5.254,0,0,0-1.683,1.312V57.409ZM11.5,87.5a9.807,9.807,0,0,1,4.107.856,10.132,10.132,0,0,1,3.28,2.367A10.9,10.9,0,0,1,21.072,94.3a13.093,13.093,0,0,1,0,8.927,10.9,10.9,0,0,1-2.182,3.579,10.131,10.131,0,0,1-3.28,2.367,9.806,9.806,0,0,1-4.107.856,9.806,9.806,0,0,1-4.107-.856,10.131,10.131,0,0,1-3.28-2.367,10.9,10.9,0,0,1-2.182-3.579,13.092,13.092,0,0,1,0-8.927A10.9,10.9,0,0,1,4.117,90.72,10.131,10.131,0,0,1,7.4,88.353,9.808,9.808,0,0,1,11.5,87.5ZM4.745,98.734a17.588,17.588,0,0,0,.456,4.192,9.645,9.645,0,0,0,1.34,3.151,6.187,6.187,0,0,0,2.125,1.982,5.777,5.777,0,0,0,2.838.684,5.8,5.8,0,0,0,2.823-.684,6.143,6.143,0,0,0,2.139-1.982,9.639,9.639,0,0,0,1.34-3.166,17.906,17.906,0,0,0,.456-4.235,17.41,17.41,0,0,0-.456-4.178A9.5,9.5,0,0,0,16.48,91.39a5.98,5.98,0,0,0-2.125-1.939,5.9,5.9,0,0,0-2.823-.67,5.959,5.959,0,0,0-2.852.67A6.055,6.055,0,0,0,6.541,91.4,9.475,9.475,0,0,0,5.2,94.542,17.587,17.587,0,0,0,4.745,98.734Zm31.6,10.438v.57H28.616v-.57l2.167-.428V96.88l-2.11-.8v-.371l4.421-1.4h.285v3.137a10.3,10.3,0,0,1,2-2.324,3.081,3.081,0,0,1,1.911-.813,1.8,1.8,0,0,1,1.8,1.8,1.57,1.57,0,0,1-.471,1.155,1.6,1.6,0,0,1-1.184.471,1.275,1.275,0,0,1-1.084-.542,1.981,1.981,0,0,0-.442-.428.827.827,0,0,0-.442-.114,1.431,1.431,0,0,0-1.141.713q-.485.656-.627.884a1.538,1.538,0,0,0-.2.485v10.011Zm15.344.856a6.924,6.924,0,0,1-2.809-.556,6.456,6.456,0,0,1-2.2-1.569,7.172,7.172,0,0,1-1.44-2.424,9.642,9.642,0,0,1,.043-6.331,7.516,7.516,0,0,1,1.569-2.538,7.2,7.2,0,0,1,2.4-1.668,7.636,7.636,0,0,1,3.066-.6,7.291,7.291,0,0,1,2.025.271,5.81,5.81,0,0,1,1.626.727,3.749,3.749,0,0,1,1.084,1.07,2.339,2.339,0,0,1,.4,1.3,1.883,1.883,0,0,1-.342,1.184,1.155,1.155,0,0,1-.97.442q-1.483,0-1.683-1.8a5.5,5.5,0,0,0-.242-1.155,1.958,1.958,0,0,0-.4-.7,1.183,1.183,0,0,0-.585-.342,3.453,3.453,0,0,0-.827-.086,4.038,4.038,0,0,0-3.522,1.782,8.22,8.22,0,0,0-1.241,4.777,7.076,7.076,0,0,0,1.283,4.535,4.382,4.382,0,0,0,3.622,1.6,5.743,5.743,0,0,0,2.41-.513,4.777,4.777,0,0,0,1.9-1.569l.314-.428.542.285-.143.371A6.082,6.082,0,0,1,55.3,109,6.308,6.308,0,0,1,51.688,110.028Zm18.937-.856v.57H63.61v-.57l2.168-.428V88.609l-2.111-.77v-.4L68.2,86.071h.285V96.709a10.257,10.257,0,0,1,2.781-1.754,7.54,7.54,0,0,1,2.923-.613,4.352,4.352,0,0,1,2.025.456A2.83,2.83,0,0,1,77.5,96.053a2.58,2.58,0,0,1,.185.5,4.68,4.68,0,0,1,.114.727q.043.456.057,1.126t.014,1.7v8.67l2.139.4v.57H73.021v-.57l2.139-.4v-8.385q0-1.226-.071-1.954a4.32,4.32,0,0,0-.271-1.212,2.159,2.159,0,0,0-2.225-1.312,5.4,5.4,0,0,0-4.107,1.854v10.98Zm28.862-8.214H89.078v.656a7.625,7.625,0,0,0,1.241,4.734,4.388,4.388,0,0,0,3.693,1.6,6.68,6.68,0,0,0,2.6-.5,4.844,4.844,0,0,0,1.939-1.412l.342-.428.485.285-.171.4a5.8,5.8,0,0,1-2.381,2.738,7.068,7.068,0,0,1-3.75,1,6.824,6.824,0,0,1-2.795-.556,6.289,6.289,0,0,1-2.153-1.554,7.107,7.107,0,0,1-1.4-2.4,9.939,9.939,0,0,1,.057-6.388,7.606,7.606,0,0,1,1.554-2.553,6.85,6.85,0,0,1,2.4-1.654,7.981,7.981,0,0,1,3.109-.585,5.535,5.535,0,0,1,4.306,1.626,7.131,7.131,0,0,1,1.54,4.82Zm-5.9-5.732A3.868,3.868,0,0,0,90.561,96.5a6.509,6.509,0,0,0-1.426,3.665l7.472-.257a1.937,1.937,0,0,0,.071-.5q.014-.328.014-.67Q96.692,95.226,93.584,95.226Zm18.509-.884a13.819,13.819,0,0,1,1.9.128,6.025,6.025,0,0,1,1.469.356v3.964h-.6q-.428-3.593-3.337-3.593a2.58,2.58,0,0,0-1.811.613,2.477,2.477,0,0,0-.143,3.223,4.916,4.916,0,0,0,1.312,1.013q.784.428,1.711.827a9.331,9.331,0,0,1,1.711.955,4.853,4.853,0,0,1,1.312,1.4,4.052,4.052,0,0,1,.528,2.182,4.268,4.268,0,0,1-1.412,3.38,5.607,5.607,0,0,1-3.836,1.241,13.142,13.142,0,0,1-2.011-.171,11.266,11.266,0,0,1-1.925-.456l-.171-4.62h.684q.4,4.392,3.651,4.392a2.9,2.9,0,0,0,2.053-.713,2.479,2.479,0,0,0,.77-1.911,2.44,2.44,0,0,0-.528-1.626,5.079,5.079,0,0,0-1.326-1.1,17.194,17.194,0,0,0-1.725-.884,10.485,10.485,0,0,1-1.725-.97,4.914,4.914,0,0,1-1.326-1.369,3.787,3.787,0,0,1-.528-2.1,3.7,3.7,0,0,1,1.369-3.08A6.219,6.219,0,0,1,112.093,94.342Zm15.629,15.686a3.13,3.13,0,0,1-2.225-.8,2.665,2.665,0,0,1-.727-1.212,7.571,7.571,0,0,1-.214-2.039V95.625H122.7l-.057-.456,4.107-4.278.513.057v3.679h4.078l-.228,1h-3.85v10.1a12.977,12.977,0,0,0,.057,1.483,1.949,1.949,0,0,0,.2.684,1.528,1.528,0,0,0,1.426.8,2.428,2.428,0,0,0,1.155-.314,3.221,3.221,0,0,0,1.013-.856l.485.371a4.748,4.748,0,0,1-1.683,1.569A4.452,4.452,0,0,1,127.722,110.028Zm13.176,0a3.3,3.3,0,0,1-2.481-.97,3.452,3.452,0,0,1-.941-2.51,3.314,3.314,0,0,1,.414-1.668,3.966,3.966,0,0,1,1.34-1.326,10.808,10.808,0,0,1,2.424-1.1,34.381,34.381,0,0,1,3.636-.955V98.705a4.649,4.649,0,0,0-.513-2.538,2,2,0,0,0-1.768-.742,2.968,2.968,0,0,0-1.939.585,1.939,1.939,0,0,0-.713,1.583,4.849,4.849,0,0,0,.028.5,4.754,4.754,0,0,1,.029.5,1.715,1.715,0,0,1-.414,1.2,1.377,1.377,0,0,1-1.07.456,1.275,1.275,0,0,1-.941-.371,1.349,1.349,0,0,1-.371-1,3.052,3.052,0,0,1,.841-1.939,7.09,7.09,0,0,1,2.239-1.711,7.782,7.782,0,0,1,3.622-.884,5.057,5.057,0,0,1,2.082.385,2.419,2.419,0,0,1,1.226,1.126,3.469,3.469,0,0,1,.185.528,4.62,4.62,0,0,1,.114.684q.043.414.057,1.027t.014,1.5v6.531a5.548,5.548,0,0,0,.214,1.911.829.829,0,0,0,.842.485,1.374,1.374,0,0,0,.713-.185,2.752,2.752,0,0,0,.684-.642l.485.428a4.672,4.672,0,0,1-1.355,1.469,2.948,2.948,0,0,1-1.611.442q-2.253,0-2.538-2.567l-.085-.057a6.248,6.248,0,0,1-2.011,1.925A4.737,4.737,0,0,1,140.9,110.028Zm1.255-1.683a3.317,3.317,0,0,0,1.74-.5,4.224,4.224,0,0,0,1.4-1.412v-4.107q-1.512.314-2.524.627a5.911,5.911,0,0,0-1.626.742,2.519,2.519,0,0,0-.87.97,2.969,2.969,0,0,0-.257,1.283,2.569,2.569,0,0,0,.556,1.783A2.028,2.028,0,0,0,142.153,108.345Zm19.08,1.683a3.129,3.129,0,0,1-2.225-.8,2.664,2.664,0,0,1-.727-1.212,7.571,7.571,0,0,1-.214-2.039V95.625h-1.854l-.057-.456,4.107-4.278.513.057v3.679h4.078l-.228,1h-3.85v10.1a12.951,12.951,0,0,0,.057,1.483,1.946,1.946,0,0,0,.2.684,1.527,1.527,0,0,0,1.426.8,2.429,2.429,0,0,0,1.155-.314,3.224,3.224,0,0,0,1.012-.856l.485.371a4.747,4.747,0,0,1-1.683,1.569A4.452,4.452,0,0,1,161.233,110.028Zm10.923-20.677a1.854,1.854,0,0,1,.5-1.326,1.74,1.74,0,0,1,1.326-.528,1.776,1.776,0,0,1,1.355.528,1.854,1.854,0,0,1,.5,1.326,1.831,1.831,0,0,1-.5,1.283,1.751,1.751,0,0,1-1.355.542,1.717,1.717,0,0,1-1.326-.542A1.831,1.831,0,0,1,172.156,89.351Zm5.333,19.821v.57h-7.016v-.57l2.167-.428V96.88l-2.11-.77v-.4l4.563-1.369h.257v14.4Zm13.718-14.83a7.39,7.39,0,0,1,2.995.6,7.286,7.286,0,0,1,2.367,1.64,7.562,7.562,0,0,1,1.569,2.481,8.835,8.835,0,0,1,0,6.246,7.726,7.726,0,0,1-1.569,2.5,7.008,7.008,0,0,1-2.367,1.64,7.962,7.962,0,0,1-5.989,0,7.008,7.008,0,0,1-2.367-1.64,7.727,7.727,0,0,1-1.569-2.5,8.833,8.833,0,0,1,0-6.246,7.563,7.563,0,0,1,1.569-2.481,7.287,7.287,0,0,1,2.367-1.64A7.388,7.388,0,0,1,191.207,94.342Zm-4.478,7.843a8.469,8.469,0,0,0,1.184,4.834,3.749,3.749,0,0,0,3.265,1.726,3.8,3.8,0,0,0,3.308-1.74,10.38,10.38,0,0,0,.014-9.654,4.007,4.007,0,0,0-6.588,0A8.47,8.47,0,0,0,186.729,102.185Zm25.44,6.987v.57h-7.016v-.57l2.168-.428V96.909l-2.11-.8v-.371l4.421-1.4h.285v2.424a9.433,9.433,0,0,1,2.609-1.8,6.617,6.617,0,0,1,2.752-.627,4.352,4.352,0,0,1,2.025.456,2.83,2.83,0,0,1,1.283,1.255,2.589,2.589,0,0,1,.185.5,4.691,4.691,0,0,1,.114.727q.043.456.057,1.126t.014,1.7v8.67l2.139.4v.57h-6.987v-.57l2.139-.4v-8.385q0-1.226-.071-1.954a4.325,4.325,0,0,0-.271-1.212,2.159,2.159,0,0,0-2.225-1.312,4.457,4.457,0,0,0-1.968.456,5.253,5.253,0,0,0-1.683,1.312v11.066Z" transform="translate(409.606 321.185)" fill="#fff"/>
  </g>
</svg>
