<svg xmlns="http://www.w3.org/2000/svg" width="18" height="18.141" viewBox="0 0 18 18.141">
  <path id="合体_14" data-name="合体 14" d="M-7145.94-4297.858c-1.155,0-2.06-.693-2.06-1.578v-11.525c0-.884.905-1.578,2.06-1.578h1.642a.693.693,0,0,1,.692.694.692.692,0,0,1-.692.691h-1.642a.927.927,0,0,0-.675.222v11.467a.924.924,0,0,0,.675.223h10.946a.925.925,0,0,0,.676-.223v-6.282a.691.691,0,0,1,.692-.693.692.692,0,0,1,.693.693v6.311c0,.884-.905,1.578-2.061,1.578Zm2.144-5.958a8.986,8.986,0,0,1,9.061-8.89h2.373l-2.113-2.111a.7.7,0,0,1,0-.979.693.693,0,0,1,.98,0l3.292,3.292a.691.691,0,0,1,.2.49.691.691,0,0,1-.2.49l-3.292,3.292a.692.692,0,0,1-.49.2.691.691,0,0,1-.49-.2.7.7,0,0,1,0-.98l2.112-2.11h-2.373a7.6,7.6,0,0,0-7.676,7.506.691.691,0,0,1-.691.691A.693.693,0,0,1-7143.8-4303.816Z" transform="translate(7148 4316)" fill="#fff"/>
</svg>
