<svg xmlns="http://www.w3.org/2000/svg" width="251.35" height="56" viewBox="0 0 251.35 56">
  <g id="logo" transform="translate(-1.769 -1.324)">
    <path id="パス_10" data-name="パス 10" d="M45.167,32.382v1.105a18.008,18.008,0,0,1,1.854-.08h6.8a16.739,16.739,0,0,1,1.874.08V32.364A18.391,18.391,0,0,0,58.635,33.8a13.152,13.152,0,0,1,1.38-3.115A17.079,17.079,0,0,1,55.3,28.5a11.645,11.645,0,0,1-3.332-3.036H48.776a11.721,11.721,0,0,1-3.313,3.194,14.97,14.97,0,0,1-4.535,2.168,12.906,12.906,0,0,1,1.479,2.9A17.877,17.877,0,0,0,45.167,32.382Zm5.265-4.259a14.578,14.578,0,0,0,2.76,2.623H47.652A13.755,13.755,0,0,0,50.432,28.124Z" transform="translate(17.126 10.557)" fill="#275aab"/>
    <path id="パス_11" data-name="パス 11" d="M58.761,34.693V31.677c-.71.059-1.44.1-2.386.1H43.992c-.907,0-1.715-.039-2.406-.1v3.016a20.9,20.9,0,0,1,2.406-.118H46.4a23.8,23.8,0,0,1-1.716,3.214c-1.163.039-1.163.039-1.38.039-.434,0-.789-.02-1.3-.059l.374,3.293c.493-.079,1.045-.138,1.735-.2.828-.039,6.153-.493,7.454-.631,1.084-.1,1.084-.1,3.372-.355.473.749.473.749.926,1.459l2.721-1.676a43.2,43.2,0,0,0-4.16-5.087h1.952A20.51,20.51,0,0,1,58.761,34.693Zm-5.679,2.7c-2.051.178-2.051.178-4.93.3a24.568,24.568,0,0,0,1.716-3.115h3.865l-2.327.927C52.254,36.409,52.53,36.723,53.082,37.393Z" transform="translate(17.413 13.274)" fill="#275aab"/>
    <path id="パス_12" data-name="パス 12" d="M63.01,38.909a13.822,13.822,0,0,1,1.479-2.819,9.585,9.585,0,0,1-3.155-2.366,16.319,16.319,0,0,0,1.774-3.214,6.851,6.851,0,0,1,.454-.927l-1.282-1.36a7.09,7.09,0,0,1-1.143.059H60.6V26.844a8.494,8.494,0,0,1,.1-1.519H57.568a9.372,9.372,0,0,1,.118,1.5v1.459H56.8A10.364,10.364,0,0,1,55.28,28.2v2.918A13.407,13.407,0,0,1,57,31.044h2.78a8.689,8.689,0,0,1-2.051,2.74,11.844,11.844,0,0,1-3.076,2.248,11.058,11.058,0,0,1,1.262,2.958,13.9,13.9,0,0,0,1.755-1.242v4a15.015,15.015,0,0,1-.118,2.169H60.7a19,19,0,0,1-.079-2.09V36.88A9.114,9.114,0,0,0,63.01,38.909Z" transform="translate(23.126 10.496)" fill="#275aab"/>
    <path id="パス_13" data-name="パス 13" d="M68.618,43.31c.769,0,1.558.039,2.386.118v-3.1a20.816,20.816,0,0,1-2.4.1H67.021V33.214h1.558c.69,0,1.3.04,1.952.1V30.257a13.151,13.151,0,0,1-1.952.1H67.021V27.693a16.044,16.044,0,0,1,.119-2.327H63.768a17.075,17.075,0,0,1,.138,2.327v2.662H62.881a13.183,13.183,0,0,1-1.933-.1v3.056c.631-.059,1.262-.1,1.933-.1h1.025v7.217H62.269a21.141,21.141,0,0,1-2.366-.1v3.1a22.542,22.542,0,0,1,2.307-.118Z" transform="translate(25.424 10.514)" fill="#275aab"/>
    <path id="パス_14" data-name="パス 14" d="M43.46,23.216c-.04.69-.059,1.459-.059,1.893v2.662a23.348,23.348,0,0,1-.119,2.543H46.4a22.851,22.851,0,0,1-.119-2.543V26.509a12.551,12.551,0,0,1,1.6,2.662,13.033,13.033,0,0,0,4.1-4.417c-.04.749-.059,1.341-.059,1.873v1.2a23.093,23.093,0,0,1-.119,2.5h3.115a22.985,22.985,0,0,1-.118-2.5v-1.4c0-.493-.019-1.124-.059-1.755A12.909,12.909,0,0,0,58.6,29.25a15.211,15.211,0,0,1,1.479-3.116A11.14,11.14,0,0,1,57.675,24.4a12.382,12.382,0,0,1-2.011-2.5h1.479a19.623,19.623,0,0,1,2.326.118V19a18.36,18.36,0,0,1-2.307.118H54.836V17.36H56.61a19.581,19.581,0,0,1,2.327.118V14.461a17.648,17.648,0,0,1-2.307.119H54.836v-.828a13.625,13.625,0,0,1,.118-1.992H51.8a13.986,13.986,0,0,1,.119,1.992v.828h-.967c.079-.336.079-.355.119-.493.158-.671.217-.907.295-1.164l-2.74-.688a12.1,12.1,0,0,1-1.085,4.14v-1.38a4.21,4.21,0,0,1-.907.079h-.355V13.791A13.938,13.938,0,0,1,46.4,11.74H43.263a13.983,13.983,0,0,1,.118,2.051v1.282H42.73a5.305,5.305,0,0,1-1.262-.1v2.938a5.409,5.409,0,0,1,1.262-.1h.454a13.635,13.635,0,0,1-2.228,5.226,15.675,15.675,0,0,1,.966,3.352A10.624,10.624,0,0,0,43.46,23.216Zm6.625-5.856h1.834v1.755H50.281c-.4,0-.592,0-1-.02A12.345,12.345,0,0,0,50.085,17.36Zm-3.392.453a3.794,3.794,0,0,1,.848.08v-.022a10.585,10.585,0,0,1,1.44,1.223,7.247,7.247,0,0,1-1.026-.118v1.439a7.866,7.866,0,0,1-1.616-2.6Zm.414,5.482c.2-.67.533-1.6.848-2.366v1.1a14.776,14.776,0,0,1,2.327-.138h.65a11.576,11.576,0,0,1-2.068,2.622,11.886,11.886,0,0,1-2.584,1.893V23.65c0-.73-.019-1.479-.039-2.012A6.6,6.6,0,0,0,47.106,23.295Z" transform="translate(17.138 4.555)" fill="#275aab"/>
    <path id="パス_15" data-name="パス 15" d="M54.965,24.211l.434,3.1a13.664,13.664,0,0,1,1.36-.237c2.958-.434,4.851-.789,8.538-1.637v-2.8c-1.716.4-2.445.553-3.687.77V19.755h.769c.729,0,1.577.039,2.189.079v-2.84a20.676,20.676,0,0,1-2.209.1H57.9a21.2,21.2,0,0,1-2.248-.1v2.84c.611-.04,1.459-.079,2.169-.079h.828v4.1A27.665,27.665,0,0,1,54.965,24.211Z" transform="translate(23.264 6.853)" fill="#275aab"/>
    <path id="パス_16" data-name="パス 16" d="M71,23.444a10.487,10.487,0,0,1-.552,2.879,8.6,8.6,0,0,1-1.38-2.8A22.939,22.939,0,0,1,68.1,17.47h2.268a21.614,21.614,0,0,1,2.563.118v-3a11.136,11.136,0,0,1-1.912.1h-.217l1.538-.789a15.921,15.921,0,0,0-1.775-2.051l-2.247,1.144a9.982,9.982,0,0,1,1.5,1.7H68.006c-.02-1.026-.02-1.44-.02-1.617a7.232,7.232,0,0,1,.079-1.164H64.812a22.347,22.347,0,0,1,.158,2.781H57.555a22.279,22.279,0,0,1-2.563-.119v3.017c.868-.079,1.637-.118,2.563-.118h7.513c.256,4.278.947,7.315,2.129,9.542,1.006,1.913,2.307,3.056,3.451,3.056a2.008,2.008,0,0,0,1.676-1.1A10.7,10.7,0,0,0,73.447,24.9,11.189,11.189,0,0,1,71,23.444Z" transform="translate(23.276 4.603)" fill="#275aab"/>
    <path id="パス_17" data-name="パス 17" d="M80,35.58a42.016,42.016,0,0,1-11.364,7.6,22.157,22.157,0,0,1,5.284,6.594c7.128-4.105,12.245-8.515,16.228-13.886a66.29,66.29,0,0,1,7.927,8.952l5.7-6.2a92.586,92.586,0,0,0-9.14-9.17,78.249,78.249,0,0,0,5.575-11.529,34.046,34.046,0,0,1,1.762-4.06l-7.884-2.751A48.525,48.525,0,0,1,88.64,24.533a95.481,95.481,0,0,0-9.9-6.855l-5.157,5.282a88.744,88.744,0,0,1,10.9,7.773A43.337,43.337,0,0,1,80,35.58Z" transform="translate(29.244 4.287)" fill="#275aab"/>
    <path id="パス_18" data-name="パス 18" d="M92.206,18.713a45.1,45.1,0,0,1,11.407,9.213l4.947-6.812a61.185,61.185,0,0,0-11.532-8.559Z" transform="translate(39.551 4.912)" fill="#275aab"/>
    <path id="パス_19" data-name="パス 19" d="M97.7,45.861c7.8-1.877,11.782-3.493,16.312-6.55,5.87-3.93,9.854-9.083,13.67-17.684a27.526,27.526,0,0,1-6.165-5.853,40.936,40.936,0,0,1-4.109,8.559,25.491,25.491,0,0,1-12.288,10.784A40.645,40.645,0,0,1,92.5,38.264l2.18,8.384C95.811,46.3,96.061,46.255,97.7,45.861Z" transform="translate(39.679 6.32)" fill="#275aab"/>
    <path id="パス_20" data-name="パス 20" d="M121.168,44.788a24.277,24.277,0,0,1,4.907,6.548,48.091,48.091,0,0,0,7.213-4.017,40.831,40.831,0,0,0,10.189-9.869c3.1-4.367,5.327-9.083,7.8-16.854a4.039,4.039,0,0,1,.964-1.879l-3.733-3.842a4.486,4.486,0,0,1-2.558.568l-11.279.131c1.173-2.489,1.761-3.711,1.8-3.8l-7.506-1.528a28.686,28.686,0,0,1-2.433,6.112,37.247,37.247,0,0,1-10.441,12.534,20.616,20.616,0,0,1,6.038,4.934,45.516,45.516,0,0,0,9.561-11.835l11.615-.086a31.416,31.416,0,0,1-3.6,7.99,54.068,54.068,0,0,0-7.717-4.976l-4.4,5.5a44.993,44.993,0,0,1,7.8,5.413C131.61,39.852,127.542,42.429,121.168,44.788Z" transform="translate(49.998 3.902)" fill="#275aab"/>
    <rect id="長方形_29" data-name="長方形 29" width="28.265" height="7.772" transform="translate(200.972 30.785)" fill="#275aab"/>
    <path id="パス_21" data-name="パス 21" d="M177.581,13.785a2.663,2.663,0,1,0-2.673,2.673A2.664,2.664,0,0,0,177.581,13.785Zm-2.673,1a1,1,0,1,1,0-2.005,1,1,0,1,1,0,2.005Z" transform="translate(74.56 4.289)" fill="#275aab"/>
    <path id="パス_22" data-name="パス 22" d="M172.154,23.646c-1.025.914-3.632,2.987-9.025,3.677l2.05,4.1C177.057,29.172,179.73,21.239,180,16.493c-2.563.178-4.078-1.315-3.966-3.81h-14.04v4.39h13.215A10.168,10.168,0,0,1,172.154,23.646Z" transform="translate(70.071 4.968)" fill="#275aab"/>
    <path id="パス_23" data-name="パス 23" d="M180.553,26.338H162.147V44.03h18.407Zm-4.479,13.616H166.56V30.416h9.515Z" transform="translate(70.139 10.939)" fill="#275aab"/>
    <path id="パス_24" data-name="パス 24" d="M53.13,3.535H49.771a7.167,7.167,0,0,1-.47,1.608l-1.889,4.916-1.9-4.916a7.806,7.806,0,0,1-.483-1.608H41.683a14.212,14.212,0,0,1,.1,1.779v5.942a11.39,11.39,0,0,1-.1,1.768h2.5a11.192,11.192,0,0,1-.1-1.768V8.781c0-.6-.052-1.539-.126-2.258.063.16.063.16.2.571.037.091.418,1.151.431,1.209l1.166,3.033a8.324,8.324,0,0,1,.546,1.689h2.2a9.631,9.631,0,0,1,.545-1.677l1.23-3.125c.164-.41.292-.821.571-1.71-.013.171-.013.171-.052.776-.024.354-.063,1.207-.063,1.482v2.487a11.379,11.379,0,0,1-.1,1.768h2.5a10.234,10.234,0,0,1-.1-1.768V5.314A11.912,11.912,0,0,1,53.13,3.535Z" transform="translate(17.456 0.967)" fill="#275aab"/>
    <path id="パス_25" data-name="パス 25" d="M53,13.081c.546-.022.9-.033,1.864-.033h3.993a18.02,18.02,0,0,1,2.091.079V11a19.34,19.34,0,0,1-2.065.079H55.612V9.159H58.35a17.647,17.647,0,0,1,1.9.079V7.129a17.087,17.087,0,0,1-1.9.079H55.612V5.533h3.3a17.545,17.545,0,0,1,1.889.079V3.48a17.545,17.545,0,0,1-1.889.079H54.864c-.989,0-1.344-.011-1.864-.034a10.884,10.884,0,0,1,.1,1.666v6.227A9.442,9.442,0,0,1,53,13.081Z" transform="translate(22.405 0.943)" fill="#275aab"/>
    <path id="パス_26" data-name="パス 26" d="M71.2,3.535H68.5a11.167,11.167,0,0,1,.1,1.733v2.6c0,.64.026,1.163.076,1.689A15.059,15.059,0,0,0,67.765,8.2L65.358,4.961a7.385,7.385,0,0,1-.9-1.426h-2.75a11.654,11.654,0,0,1,.1,1.7v6a10.783,10.783,0,0,1-.1,1.791h2.7a11.272,11.272,0,0,1-.1-1.779V8.691a14.729,14.729,0,0,0-.089-1.7,13.177,13.177,0,0,0,.913,1.4l2.344,3.182a12.12,12.12,0,0,1,.952,1.449H71.2a12.39,12.39,0,0,1-.1-1.7V5.268A10.981,10.981,0,0,1,71.2,3.535Z" transform="translate(26.213 0.967)" fill="#275aab"/>
    <path id="パス_27" data-name="パス 27" d="M78.224,5.577a18.014,18.014,0,0,1,1.978.08V3.48a18.9,18.9,0,0,1-1.978.079H72.672c-.773,0-1.47-.034-1.889-.079V5.658a18.9,18.9,0,0,1,1.915-.08h1.5v5.748a11.389,11.389,0,0,1-.1,1.723h2.8a11.689,11.689,0,0,1-.1-1.723V5.577Z" transform="translate(30.182 0.943)" fill="#275aab"/>
    <path id="パス_28" data-name="パス 28" d="M88.978,8.3c0-2.988-1.991-4.9-5.108-4.9s-5.121,1.927-5.121,4.939,2,4.972,5.108,4.972A4.777,4.777,0,0,0,88.978,8.3Zm-7.606.023c0-1.837.952-2.965,2.5-2.965s2.472,1.118,2.472,2.965c0,1.87-.939,3.011-2.472,3.011S81.372,10.178,81.372,8.319Z" transform="translate(33.666 0.904)" fill="#275aab"/>
    <path id="パス_29" data-name="パス 29" d="M87.808,13.035h2.725a10.664,10.664,0,0,1-.1-1.723V9.441h1.294a1.484,1.484,0,0,1,.989.309c.316.25.469.513.874,1.5a10.282,10.282,0,0,1,.622,1.779h2.965c-.318-.605-.469-.89-.608-1.21-.571-1.232-.747-1.618-.939-1.984-.405-.809-.7-1.072-1.344-1.255a2.918,2.918,0,0,0,1.2-.569,2.351,2.351,0,0,0,.749-1.871c0-1.641-1.192-2.6-3.245-2.6H89.7c-.862,0-1.331-.011-1.889-.034a11.146,11.146,0,0,1,.1,1.677v6.135A10.322,10.322,0,0,1,87.808,13.035Zm2.623-7.573h1.991c.785,0,1.192.331,1.192.969a1.056,1.056,0,0,1-1.2,1.061H90.431Z" transform="translate(37.628 0.956)" fill="#275aab"/>
    <path id="パス_30" data-name="パス 30" d="M98.675,13.035H101.4a13.374,13.374,0,0,1-.1-1.723V9.853h2c2.458,0,3.9-1.209,3.9-3.24,0-1.984-1.381-3.067-3.892-3.067h-2.774c-.812,0-1.269-.011-1.864-.034a11.48,11.48,0,0,1,.1,1.666v6.169A11.012,11.012,0,0,1,98.675,13.035Zm2.623-7.55h1.889c.913,0,1.409.41,1.409,1.2s-.52,1.232-1.409,1.232H101.3Z" transform="translate(42.38 0.956)" fill="#275aab"/>
    <path id="パス_31" data-name="パス 31" d="M106.376,13.035H109.1a10.831,10.831,0,0,1-.1-1.723V9.441h1.3a1.478,1.478,0,0,1,.987.309c.318.25.469.513.874,1.5a10.282,10.282,0,0,1,.622,1.779h2.967c-.318-.605-.47-.89-.608-1.21-.572-1.232-.749-1.618-.94-1.984-.405-.809-.7-1.072-1.342-1.255a2.937,2.937,0,0,0,1.2-.569,2.355,2.355,0,0,0,.747-1.871c0-1.641-1.192-2.6-3.245-2.6h-3.3c-.862,0-1.331-.011-1.889-.034a10.959,10.959,0,0,1,.1,1.677v6.135A10.165,10.165,0,0,1,106.376,13.035ZM109,5.461h1.991c.786,0,1.192.331,1.192.969s-.456,1.061-1.2,1.061H109Z" transform="translate(45.748 0.956)" fill="#275aab"/>
    <path id="パス_32" data-name="パス 32" d="M124.359,8.3c0-2.988-1.991-4.9-5.108-4.9s-5.121,1.927-5.121,4.939,2,4.972,5.11,4.972A4.777,4.777,0,0,0,124.359,8.3Zm-7.6.023c0-1.837.95-2.965,2.5-2.965s2.472,1.118,2.472,2.965c0,1.87-.937,3.011-2.472,3.011S116.754,10.178,116.754,8.319Z" transform="translate(49.139 0.904)" fill="#275aab"/>
    <path id="パス_33" data-name="パス 33" d="M130.5,5.354a1.848,1.848,0,0,1,2,1.551l2.61-.456a3.364,3.364,0,0,0-.786-1.562,4.627,4.627,0,0,0-3.738-1.495,5.489,5.489,0,0,0-3.639,1.186,4.866,4.866,0,0,0-1.534,3.753,4.958,4.958,0,0,0,1.47,3.718,5.469,5.469,0,0,0,3.753,1.253,4.811,4.811,0,0,0,3.549-1.243,4.131,4.131,0,0,0,1.052-2.086l-2.636-.354a1.83,1.83,0,0,1-.381.98,2.086,2.086,0,0,1-1.66.719c-1.572,0-2.51-1.13-2.51-2.988C128.057,6.449,128.957,5.354,130.5,5.354Z" transform="translate(54.077 0.904)" fill="#275aab"/>
    <path id="パス_34" data-name="パス 34" d="M142.209,8.821c0-2.258-1.623-3.707-4.183-3.707s-4.183,1.449-4.183,3.73,1.623,3.751,4.17,3.751C140.536,12.6,142.209,11.089,142.209,8.821Zm-5.945.011c0-1.255.658-2.008,1.775-2.008,1.078,0,1.723.753,1.723,2.031s-.634,2.007-1.736,2.007S136.264,10.1,136.264,8.832Z" transform="translate(57.761 1.657)" fill="#275aab"/>
    <rect id="長方形_30" data-name="長方形 30" width="2.56" height="2.304" transform="translate(202.001 11.687)" fill="#275aab"/>
    <path id="パス_35" data-name="パス 35" d="M145.725,11.6a2.013,2.013,0,0,1-1,.342l.558.867a2.5,2.5,0,0,0,1.268-.558,1.769,1.769,0,0,0,.634-1.426V8.534h-2.56v2.293h1.457A.93.93,0,0,1,145.725,11.6Z" transform="translate(62.475 3.153)" fill="#275aab"/>
    <path id="パス_36" data-name="パス 36" d="M152.341,13.057c.481-.022,1-.033,1.876-.033h3.854a18.265,18.265,0,0,1,2.1.079V10.914a16.772,16.772,0,0,1-2.1.079H155V5.337a10.145,10.145,0,0,1,.1-1.8h-2.764a12.451,12.451,0,0,1,.1,1.837v6.021A9.213,9.213,0,0,1,152.341,13.057Z" transform="translate(65.85 0.967)" fill="#275aab"/>
    <path id="パス_37" data-name="パス 37" d="M161.095,12.6a3.328,3.328,0,0,0,1.863.4,6.034,6.034,0,0,0,1.751-.227l-.191-1.733a1.909,1.909,0,0,1-.887.206,1.181,1.181,0,0,1-.582-.126c-.167-.1-.23-.262-.23-.581V7.612h.532a9.029,9.029,0,0,1,1.167.069V5.788a9.576,9.576,0,0,1-1.242.056h-.457V5.605a11.948,11.948,0,0,1,.1-1.562h-2.586a10.453,10.453,0,0,1,.1,1.562v.239h-.456a8.414,8.414,0,0,1-1.128-.068v1.9a8.42,8.42,0,0,1,1.1-.069h.482V11.1A1.539,1.539,0,0,0,161.095,12.6Z" transform="translate(68.697 1.189)" fill="#275aab"/>
    <path id="パス_38" data-name="パス 38" d="M165.429,6.75a3.628,3.628,0,0,0-1.091,2.784,3.407,3.407,0,0,0,3.7,3.694,3.809,3.809,0,0,0,2.56-.821,2.1,2.1,0,0,0-.012.252v.365h2.5a12.186,12.186,0,0,1-.1-1.791V5.326a11.5,11.5,0,0,1,.1-1.791h-2.6a11.4,11.4,0,0,1,.1,1.791v.946c0,.16,0,.263.012.434a4.039,4.039,0,0,0-2.6-.844A3.761,3.761,0,0,0,165.429,6.75Zm5.133,2.761a1.907,1.907,0,0,1-1.952,1.972,1.871,1.871,0,0,1-1.23-.433,1.924,1.924,0,0,1-.582-1.5,1.74,1.74,0,0,1,1.8-1.939A1.861,1.861,0,0,1,170.562,9.511Z" transform="translate(71.097 0.967)" fill="#275aab"/>
    <rect id="長方形_31" data-name="長方形 31" width="2.56" height="2.304" transform="translate(246.973 11.687)" fill="#275aab"/>
    <path id="パス_39" data-name="パス 39" d="M30.8,37.353a2.281,2.281,0,1,0,2.281-2.28A2.279,2.279,0,0,0,30.8,37.353Z" transform="translate(12.697 14.76)" fill="#275aab"/>
    <path id="パス_40" data-name="パス 40" d="M11.966,37.913v1.84h5.583v-5.4H11.966v1.624H15.32v1.932Z" transform="translate(4.459 14.446)" fill="#275aab"/>
    <path id="パス_41" data-name="パス 41" d="M4.07,46.771h.811l2.346,6.191,2.383-6.191H23.993l4.612,5.907V46.771H53.444a2.394,2.394,0,0,1,2.231,1L55.65,3.224a1.9,1.9,0,0,0-1.9-1.9H23.221a32.411,32.411,0,0,1,3.386,14.457A32.584,32.584,0,0,1,4.07,46.771Zm37.479-28.74A16.946,16.946,0,0,0,39.43,26.26c0,7.593,3.151,12.764,11.831,16.223-10.389.631-15.946-4.742-15.641-13.415A14.9,14.9,0,0,1,41.549,18.032ZM32.97,12.959a5.018,5.018,0,1,1-5.018,5.019A5.019,5.019,0,0,1,32.97,12.959Z" transform="translate(1.006 0)" fill="#275aab"/>
    <path id="パス_42" data-name="パス 42" d="M35.688,34.288v2.307h2.3a1.233,1.233,0,0,0,1.348-1.2c0-.635-.454-1.108-1.334-1.108Z" transform="translate(14.834 14.416)" fill="#275aab"/>
    <path id="パス_43" data-name="パス 43" d="M19.888,8.647a41.389,41.389,0,0,0-.655-7.323H3.7a1.9,1.9,0,0,0-1.9,1.9l.011,39.522A41.178,41.178,0,0,0,19.888,8.647Z" transform="translate(0.014 0)" fill="#275aab"/>
    <path id="パス_44" data-name="パス 44" d="M40.293,37.876c.032.063.059.132.086.2V36.055a1.548,1.548,0,0,1-1.33.573C39.773,36.808,40,37.311,40.293,37.876Z" transform="translate(16.304 15.189)" fill="#275aab"/>
    <path id="パス_45" data-name="パス 45" d="M235.943,2.038a.7.7,0,0,0-.7-.7H41.04v1.41h194.2A.7.7,0,0,0,235.943,2.038Z" transform="translate(17.175 0.003)" fill="#275aab"/>
    <path id="パス_46" data-name="パス 46" d="M252.414,41.466H54.726a7.078,7.078,0,0,0-.5-1.121A3.067,3.067,0,0,0,53.29,39.1a2.216,2.216,0,0,0-1.232-.308H50.522v2.673H42.9a4.244,4.244,0,0,1-.331-7.109H38.272v7.109H35.407V34.357H32.325v7.109H29.113L24.766,35.9v5.562H12.052V35.477L9.627,41.466H6.893l-2.4-5.909v5.909H1.769v1.411H252.414a.7.7,0,1,0,0-1.409Z" transform="translate(0 14.446)" fill="#275aab"/>
  </g>
</svg>
