<svg xmlns="http://www.w3.org/2000/svg" xmlns:xlink="http://www.w3.org/1999/xlink" width="1659.999" height="312.001" viewBox="0 0 1659.999 312.001"><defs><clipPath id="a"><rect width="300" height="207" transform="translate(960 664)" fill="#fff" stroke="#707070" stroke-width="1"/></clipPath><clipPath id="b"><rect width="300" height="245" transform="translate(1300 597)" fill="#fff" stroke="#707070" stroke-width="1"/></clipPath><clipPath id="c"><path d="M173-9126H-657v-312H173v312Zm830,0H813v-312h190v312Z" transform="translate(787 10035)" fill="#fff" stroke="#707070" stroke-width="1"/></clipPath></defs><g transform="translate(-130 -596.999)"><g clip-path="url(#a)"><path d="M903.255-9286.518a69.9,69.9,0,0,1-22.624-16.33,75.239,75.239,0,0,1-15.049-24.687,86.128,86.128,0,0,1-5.409-30.789,86.088,86.088,0,0,1,5.409-30.788,75.176,75.176,0,0,1,15.049-24.691,69.92,69.92,0,0,1,22.624-16.328,67.654,67.654,0,0,1,28.331-5.9,67.649,67.649,0,0,1,28.328,5.9,69.92,69.92,0,0,1,22.624,16.328,75.236,75.236,0,0,1,15.052,24.691,86.089,86.089,0,0,1,5.409,30.788,86.129,86.129,0,0,1-5.409,30.789,75.3,75.3,0,0,1-15.052,24.688,69.9,69.9,0,0,1-22.624,16.33,67.647,67.647,0,0,1-28.328,5.9A67.652,67.652,0,0,1,903.255-9286.518Zm8.853-136.042a41.815,41.815,0,0,0-14.754,13.477,65.331,65.331,0,0,0-9.246,21.641,121.356,121.356,0,0,0-3.149,28.922,121.32,121.32,0,0,0,3.149,28.917,66.505,66.505,0,0,0,9.246,21.739,42.688,42.688,0,0,0,14.656,13.673,39.852,39.852,0,0,0,19.577,4.722,39.994,39.994,0,0,0,19.475-4.722,42.343,42.343,0,0,0,14.754-13.673,66.51,66.51,0,0,0,9.249-21.837,123.508,123.508,0,0,0,3.146-29.216,120.1,120.1,0,0,0-3.146-28.82,65.61,65.61,0,0,0-9.148-21.444,41.281,41.281,0,0,0-14.659-13.378,40.689,40.689,0,0,0-19.475-4.622A41.126,41.126,0,0,0,912.108-9422.56ZM-140.186-9280.62l-96.989-135.153v122.955l17.509,3.738v4.525h-43.085v-4.525l17.706-3.738v-134.956l-17.706-3.736v-4.527h39.74l81.053,111.35v-103.086l-17.509-3.736v-4.527h43.085v4.527l-17.706,3.736v147.154Zm927.963-1.963-44.068-68.857H724.823v60.594l22.424,3.738v4.525H687.442v-4.525l16.723-3.738V-9425.8l-16.723-3.738v-4.525h59.215a74.729,74.729,0,0,1,21.248,2.851,50.111,50.111,0,0,1,16.625,8.263,36.774,36.774,0,0,1,10.819,13.477,42.559,42.559,0,0,1,3.837,18.492q0,14.758-8.656,24.1T766.136-9353.8l41.9,62.953,22.427,3.738v4.525Zm-62.954-76.528h12.785q12.395,0,19.478-2.854a31.394,31.394,0,0,0,11.605-7.772,28.655,28.655,0,0,0,6.1-10.919,43.239,43.239,0,0,0,1.769-12.294q0-12-4.721-19.77a26.29,26.29,0,0,0-13.378-11.117,28.3,28.3,0,0,0-7.379-1.871,86.836,86.836,0,0,0-10.131-.488h-16.13Zm-195.945,76.528v-4.525l16.72-3.738V-9425.8l-16.72-3.738v-4.525H590.06a72.273,72.273,0,0,1,21.248,2.952,48.266,48.266,0,0,1,16.625,8.654,38.576,38.576,0,0,1,10.819,14.166,46.186,46.186,0,0,1,3.837,19.278,39.706,39.706,0,0,1-3.837,17.8,35.825,35.825,0,0,1-11.016,13.083,50.154,50.154,0,0,1-17.509,7.969,93.007,93.007,0,0,1-23.115,2.654H566.256v56.658l22.427,3.738v4.525Zm37.378-72.593H581.01q12.395,0,19.577-2.756a27.721,27.721,0,0,0,11.507-7.87,27.707,27.707,0,0,0,6.2-11.706,54.557,54.557,0,0,0,1.671-13.477q0-12.785-4.721-21.146a25.609,25.609,0,0,0-13.378-11.706,28.3,28.3,0,0,0-7.379-1.871,86.835,86.835,0,0,0-10.131-.488h-18.1Zm-413.708,66.692a69.868,69.868,0,0,1-22.624-16.33,75.224,75.224,0,0,1-15.049-24.688,86.119,86.119,0,0,1-5.409-30.788,86.1,86.1,0,0,1,5.409-30.789,75.2,75.2,0,0,1,15.049-24.691,69.914,69.914,0,0,1,22.624-16.326,67.634,67.634,0,0,1,28.328-5.9,67.638,67.638,0,0,1,28.331,5.9,69.914,69.914,0,0,1,22.624,16.326,75.2,75.2,0,0,1,15.049,24.691,86.1,86.1,0,0,1,5.413,30.789,86.12,86.12,0,0,1-5.413,30.788,75.224,75.224,0,0,1-15.049,24.688,69.867,69.867,0,0,1-22.624,16.33,67.651,67.651,0,0,1-28.331,5.9A67.647,67.647,0,0,1,152.548-9288.483Zm8.853-136.039a41.768,41.768,0,0,0-14.754,13.473,65.362,65.362,0,0,0-9.246,21.642,121.369,121.369,0,0,0-3.149,28.921,121.321,121.321,0,0,0,3.149,28.918,66.486,66.486,0,0,0,9.246,21.739,42.633,42.633,0,0,0,14.656,13.673,39.84,39.84,0,0,0,19.574,4.722,40,40,0,0,0,19.478-4.722,42.343,42.343,0,0,0,14.754-13.673,66.458,66.458,0,0,0,9.246-21.838,123.482,123.482,0,0,0,3.149-29.213,120.1,120.1,0,0,0-3.149-28.822,65.508,65.508,0,0,0-9.148-21.441,41.2,41.2,0,0,0-14.656-13.378,40.666,40.666,0,0,0-19.475-4.626A41.094,41.094,0,0,0,161.4-9424.522Zm-737.152,141.936L-630.638-9414.4h-.786v121.58l17.509,3.738v4.525H-657v-4.525l17.706-3.738v-134.956L-657-9431.511v-4.527h41.313l48.986,116.664h.983l48.986-116.664h41.119v4.527l-17.509,3.736v134.956l17.509,3.738v4.525h-55.873v-4.525l17.706-3.738v-120.793h-.786l-55.873,131.024Zm976.181-1.962-44.068-68.858H337.474v60.595l22.43,3.739v4.524H300.1v-4.524l16.723-3.739V-9427.77l-16.723-3.737v-4.525h59.215a74.573,74.573,0,0,1,21.248,2.854,50.033,50.033,0,0,1,16.625,8.26A36.776,36.776,0,0,1,408-9411.439a42.538,42.538,0,0,1,3.837,18.489q0,14.758-8.656,24.1t-24.393,13.082l41.9,62.954,22.427,3.739v4.524Zm-62.957-76.528h12.788q12.395,0,19.478-2.853a31.418,31.418,0,0,0,11.605-7.772,28.637,28.637,0,0,0,6.1-10.917,43.259,43.259,0,0,0,1.769-12.3q0-12-4.721-19.771a26.293,26.293,0,0,0-13.378-11.116,28.183,28.183,0,0,0-7.378-1.868,85.9,85.9,0,0,0-10.131-.491H337.474Zm-374.18,76.528v-4.524l21.641-3.739v-135.35H-54.609a107.191,107.191,0,0,0-10.724,17.7,173.821,173.821,0,0,0-7.375,17.709h-4.721l7.277-43.282H60.083l7.28,43.282H62.642a173.179,173.179,0,0,0-7.378-17.709,106.961,106.961,0,0,0-10.721-17.7H5.589v135.35l21.444,3.739v4.524Zm-390.906-.006v-4.525l16.723-3.738v-134.956l-16.723-3.736v-4.527h109.384l3.345,43.281h-4.724q-2.359-8.459-5.8-17.706a114.762,114.762,0,0,0-8.361-17.705h-56.46v59.808h35.215a87.714,87.714,0,0,0,4.525-11.8,95.83,95.83,0,0,0,2.752-11.8h4.721v55.087h-4.721a80.721,80.721,0,0,0-7.277-23.61h-35.215v68.071h55.477a117.7,117.7,0,0,0,9.541-19.085q3.64-9.441,6.985-19.082h6.491l-7.277,46.034Z" transform="translate(787 10123)" opacity="0.6"/></g><g clip-path="url(#b)"><path d="M903.255-9286.518a69.9,69.9,0,0,1-22.624-16.33,75.239,75.239,0,0,1-15.049-24.687,86.128,86.128,0,0,1-5.409-30.789,86.088,86.088,0,0,1,5.409-30.788,75.176,75.176,0,0,1,15.049-24.691,69.92,69.92,0,0,1,22.624-16.328,67.654,67.654,0,0,1,28.331-5.9,67.649,67.649,0,0,1,28.328,5.9,69.92,69.92,0,0,1,22.624,16.328,75.236,75.236,0,0,1,15.052,24.691,86.089,86.089,0,0,1,5.409,30.788,86.129,86.129,0,0,1-5.409,30.789,75.3,75.3,0,0,1-15.052,24.688,69.9,69.9,0,0,1-22.624,16.33,67.647,67.647,0,0,1-28.328,5.9A67.652,67.652,0,0,1,903.255-9286.518Zm8.853-136.042a41.815,41.815,0,0,0-14.754,13.477,65.331,65.331,0,0,0-9.246,21.641,121.356,121.356,0,0,0-3.149,28.922,121.32,121.32,0,0,0,3.149,28.917,66.505,66.505,0,0,0,9.246,21.739,42.688,42.688,0,0,0,14.656,13.673,39.852,39.852,0,0,0,19.577,4.722,39.994,39.994,0,0,0,19.475-4.722,42.343,42.343,0,0,0,14.754-13.673,66.51,66.51,0,0,0,9.249-21.837,123.508,123.508,0,0,0,3.146-29.216,120.1,120.1,0,0,0-3.146-28.82,65.61,65.61,0,0,0-9.148-21.444,41.281,41.281,0,0,0-14.659-13.378,40.689,40.689,0,0,0-19.475-4.622A41.126,41.126,0,0,0,912.108-9422.56ZM-140.186-9280.62l-96.989-135.153v122.955l17.509,3.738v4.525h-43.085v-4.525l17.706-3.738v-134.956l-17.706-3.736v-4.527h39.74l81.053,111.35v-103.086l-17.509-3.736v-4.527h43.085v4.527l-17.706,3.736v147.154Zm927.963-1.963-44.068-68.857H724.823v60.594l22.424,3.738v4.525H687.442v-4.525l16.723-3.738V-9425.8l-16.723-3.738v-4.525h59.215a74.729,74.729,0,0,1,21.248,2.851,50.111,50.111,0,0,1,16.625,8.263,36.774,36.774,0,0,1,10.819,13.477,42.559,42.559,0,0,1,3.837,18.492q0,14.758-8.656,24.1T766.136-9353.8l41.9,62.953,22.427,3.738v4.525Zm-62.954-76.528h12.785q12.395,0,19.478-2.854a31.394,31.394,0,0,0,11.605-7.772,28.655,28.655,0,0,0,6.1-10.919,43.239,43.239,0,0,0,1.769-12.294q0-12-4.721-19.77a26.29,26.29,0,0,0-13.378-11.117,28.3,28.3,0,0,0-7.379-1.871,86.836,86.836,0,0,0-10.131-.488h-16.13Zm-195.945,76.528v-4.525l16.72-3.738V-9425.8l-16.72-3.738v-4.525H590.06a72.273,72.273,0,0,1,21.248,2.952,48.266,48.266,0,0,1,16.625,8.654,38.576,38.576,0,0,1,10.819,14.166,46.186,46.186,0,0,1,3.837,19.278,39.706,39.706,0,0,1-3.837,17.8,35.825,35.825,0,0,1-11.016,13.083,50.154,50.154,0,0,1-17.509,7.969,93.007,93.007,0,0,1-23.115,2.654H566.256v56.658l22.427,3.738v4.525Zm37.378-72.593H581.01q12.395,0,19.577-2.756a27.721,27.721,0,0,0,11.507-7.87,27.707,27.707,0,0,0,6.2-11.706,54.557,54.557,0,0,0,1.671-13.477q0-12.785-4.721-21.146a25.609,25.609,0,0,0-13.378-11.706,28.3,28.3,0,0,0-7.379-1.871,86.835,86.835,0,0,0-10.131-.488h-18.1Zm-413.708,66.692a69.868,69.868,0,0,1-22.624-16.33,75.224,75.224,0,0,1-15.049-24.688,86.119,86.119,0,0,1-5.409-30.788,86.1,86.1,0,0,1,5.409-30.789,75.2,75.2,0,0,1,15.049-24.691,69.914,69.914,0,0,1,22.624-16.326,67.634,67.634,0,0,1,28.328-5.9,67.638,67.638,0,0,1,28.331,5.9,69.914,69.914,0,0,1,22.624,16.326,75.2,75.2,0,0,1,15.049,24.691,86.1,86.1,0,0,1,5.413,30.789,86.12,86.12,0,0,1-5.413,30.788,75.224,75.224,0,0,1-15.049,24.688,69.867,69.867,0,0,1-22.624,16.33,67.651,67.651,0,0,1-28.331,5.9A67.647,67.647,0,0,1,152.548-9288.483Zm8.853-136.039a41.768,41.768,0,0,0-14.754,13.473,65.362,65.362,0,0,0-9.246,21.642,121.369,121.369,0,0,0-3.149,28.921,121.321,121.321,0,0,0,3.149,28.918,66.486,66.486,0,0,0,9.246,21.739,42.633,42.633,0,0,0,14.656,13.673,39.84,39.84,0,0,0,19.574,4.722,40,40,0,0,0,19.478-4.722,42.343,42.343,0,0,0,14.754-13.673,66.458,66.458,0,0,0,9.246-21.838,123.482,123.482,0,0,0,3.149-29.213,120.1,120.1,0,0,0-3.149-28.822,65.508,65.508,0,0,0-9.148-21.441,41.2,41.2,0,0,0-14.656-13.378,40.666,40.666,0,0,0-19.475-4.626A41.094,41.094,0,0,0,161.4-9424.522Zm-737.152,141.936L-630.638-9414.4h-.786v121.58l17.509,3.738v4.525H-657v-4.525l17.706-3.738v-134.956L-657-9431.511v-4.527h41.313l48.986,116.664h.983l48.986-116.664h41.119v4.527l-17.509,3.736v134.956l17.509,3.738v4.525h-55.873v-4.525l17.706-3.738v-120.793h-.786l-55.873,131.024Zm976.181-1.962-44.068-68.858H337.474v60.595l22.43,3.739v4.524H300.1v-4.524l16.723-3.739V-9427.77l-16.723-3.737v-4.525h59.215a74.573,74.573,0,0,1,21.248,2.854,50.033,50.033,0,0,1,16.625,8.26A36.776,36.776,0,0,1,408-9411.439a42.538,42.538,0,0,1,3.837,18.489q0,14.758-8.656,24.1t-24.393,13.082l41.9,62.954,22.427,3.739v4.524Zm-62.957-76.528h12.788q12.395,0,19.478-2.853a31.418,31.418,0,0,0,11.605-7.772,28.637,28.637,0,0,0,6.1-10.917,43.259,43.259,0,0,0,1.769-12.3q0-12-4.721-19.771a26.293,26.293,0,0,0-13.378-11.116,28.183,28.183,0,0,0-7.378-1.868,85.9,85.9,0,0,0-10.131-.491H337.474Zm-374.18,76.528v-4.524l21.641-3.739v-135.35H-54.609a107.191,107.191,0,0,0-10.724,17.7,173.821,173.821,0,0,0-7.375,17.709h-4.721l7.277-43.282H60.083l7.28,43.282H62.642a173.179,173.179,0,0,0-7.378-17.709,106.961,106.961,0,0,0-10.721-17.7H5.589v135.35l21.444,3.739v4.524Zm-390.906-.006v-4.525l16.723-3.738v-134.956l-16.723-3.736v-4.527h109.384l3.345,43.281h-4.724q-2.359-8.459-5.8-17.706a114.762,114.762,0,0,0-8.361-17.705h-56.46v59.808h35.215a87.714,87.714,0,0,0,4.525-11.8,95.83,95.83,0,0,0,2.752-11.8h4.721v55.087h-4.721a80.721,80.721,0,0,0-7.277-23.61h-35.215v68.071h55.477a117.7,117.7,0,0,0,9.541-19.085q3.64-9.441,6.985-19.082h6.491l-7.277,46.034Z" transform="translate(787 10123)" opacity="0.6"/></g><g clip-path="url(#c)"><path d="M903.255-9286.518a69.9,69.9,0,0,1-22.624-16.33,75.239,75.239,0,0,1-15.049-24.687,86.128,86.128,0,0,1-5.409-30.789,86.088,86.088,0,0,1,5.409-30.788,75.176,75.176,0,0,1,15.049-24.691,69.92,69.92,0,0,1,22.624-16.328,67.654,67.654,0,0,1,28.331-5.9,67.649,67.649,0,0,1,28.328,5.9,69.92,69.92,0,0,1,22.624,16.328,75.236,75.236,0,0,1,15.052,24.691,86.089,86.089,0,0,1,5.409,30.788,86.129,86.129,0,0,1-5.409,30.789,75.3,75.3,0,0,1-15.052,24.688,69.9,69.9,0,0,1-22.624,16.33,67.647,67.647,0,0,1-28.328,5.9A67.652,67.652,0,0,1,903.255-9286.518Zm8.853-136.042a41.815,41.815,0,0,0-14.754,13.477,65.331,65.331,0,0,0-9.246,21.641,121.356,121.356,0,0,0-3.149,28.922,121.32,121.32,0,0,0,3.149,28.917,66.505,66.505,0,0,0,9.246,21.739,42.688,42.688,0,0,0,14.656,13.673,39.852,39.852,0,0,0,19.577,4.722,39.994,39.994,0,0,0,19.475-4.722,42.343,42.343,0,0,0,14.754-13.673,66.51,66.51,0,0,0,9.249-21.837,123.508,123.508,0,0,0,3.146-29.216,120.1,120.1,0,0,0-3.146-28.82,65.61,65.61,0,0,0-9.148-21.444,41.281,41.281,0,0,0-14.659-13.378,40.689,40.689,0,0,0-19.475-4.622A41.126,41.126,0,0,0,912.108-9422.56ZM-140.186-9280.62l-96.989-135.153v122.955l17.509,3.738v4.525h-43.085v-4.525l17.706-3.738v-134.956l-17.706-3.736v-4.527h39.74l81.053,111.35v-103.086l-17.509-3.736v-4.527h43.085v4.527l-17.706,3.736v147.154Zm927.963-1.963-44.068-68.857H724.823v60.594l22.424,3.738v4.525H687.442v-4.525l16.723-3.738V-9425.8l-16.723-3.738v-4.525h59.215a74.729,74.729,0,0,1,21.248,2.851,50.111,50.111,0,0,1,16.625,8.263,36.774,36.774,0,0,1,10.819,13.477,42.559,42.559,0,0,1,3.837,18.492q0,14.758-8.656,24.1T766.136-9353.8l41.9,62.953,22.427,3.738v4.525Zm-62.954-76.528h12.785q12.395,0,19.478-2.854a31.394,31.394,0,0,0,11.605-7.772,28.655,28.655,0,0,0,6.1-10.919,43.239,43.239,0,0,0,1.769-12.294q0-12-4.721-19.77a26.29,26.29,0,0,0-13.378-11.117,28.3,28.3,0,0,0-7.379-1.871,86.836,86.836,0,0,0-10.131-.488h-16.13Zm-195.945,76.528v-4.525l16.72-3.738V-9425.8l-16.72-3.738v-4.525H590.06a72.273,72.273,0,0,1,21.248,2.952,48.266,48.266,0,0,1,16.625,8.654,38.576,38.576,0,0,1,10.819,14.166,46.186,46.186,0,0,1,3.837,19.278,39.706,39.706,0,0,1-3.837,17.8,35.825,35.825,0,0,1-11.016,13.083,50.154,50.154,0,0,1-17.509,7.969,93.007,93.007,0,0,1-23.115,2.654H566.256v56.658l22.427,3.738v4.525Zm37.378-72.593H581.01q12.395,0,19.577-2.756a27.721,27.721,0,0,0,11.507-7.87,27.707,27.707,0,0,0,6.2-11.706,54.557,54.557,0,0,0,1.671-13.477q0-12.785-4.721-21.146a25.609,25.609,0,0,0-13.378-11.706,28.3,28.3,0,0,0-7.379-1.871,86.835,86.835,0,0,0-10.131-.488h-18.1Zm-413.708,66.692a69.868,69.868,0,0,1-22.624-16.33,75.224,75.224,0,0,1-15.049-24.688,86.119,86.119,0,0,1-5.409-30.788,86.1,86.1,0,0,1,5.409-30.789,75.2,75.2,0,0,1,15.049-24.691,69.914,69.914,0,0,1,22.624-16.326,67.634,67.634,0,0,1,28.328-5.9,67.638,67.638,0,0,1,28.331,5.9,69.914,69.914,0,0,1,22.624,16.326,75.2,75.2,0,0,1,15.049,24.691,86.1,86.1,0,0,1,5.413,30.789,86.12,86.12,0,0,1-5.413,30.788,75.224,75.224,0,0,1-15.049,24.688,69.867,69.867,0,0,1-22.624,16.33,67.651,67.651,0,0,1-28.331,5.9A67.647,67.647,0,0,1,152.548-9288.483Zm8.853-136.039a41.768,41.768,0,0,0-14.754,13.473,65.362,65.362,0,0,0-9.246,21.642,121.369,121.369,0,0,0-3.149,28.921,121.321,121.321,0,0,0,3.149,28.918,66.486,66.486,0,0,0,9.246,21.739,42.633,42.633,0,0,0,14.656,13.673,39.84,39.84,0,0,0,19.574,4.722,40,40,0,0,0,19.478-4.722,42.343,42.343,0,0,0,14.754-13.673,66.458,66.458,0,0,0,9.246-21.838,123.482,123.482,0,0,0,3.149-29.213,120.1,120.1,0,0,0-3.149-28.822,65.508,65.508,0,0,0-9.148-21.441,41.2,41.2,0,0,0-14.656-13.378,40.666,40.666,0,0,0-19.475-4.626A41.094,41.094,0,0,0,161.4-9424.522Zm-737.152,141.936L-630.638-9414.4h-.786v121.58l17.509,3.738v4.525H-657v-4.525l17.706-3.738v-134.956L-657-9431.511v-4.527h41.313l48.986,116.664h.983l48.986-116.664h41.119v4.527l-17.509,3.736v134.956l17.509,3.738v4.525h-55.873v-4.525l17.706-3.738v-120.793h-.786l-55.873,131.024Zm976.181-1.962-44.068-68.858H337.474v60.595l22.43,3.739v4.524H300.1v-4.524l16.723-3.739V-9427.77l-16.723-3.737v-4.525h59.215a74.573,74.573,0,0,1,21.248,2.854,50.033,50.033,0,0,1,16.625,8.26A36.776,36.776,0,0,1,408-9411.439a42.538,42.538,0,0,1,3.837,18.489q0,14.758-8.656,24.1t-24.393,13.082l41.9,62.954,22.427,3.739v4.524Zm-62.957-76.528h12.788q12.395,0,19.478-2.853a31.418,31.418,0,0,0,11.605-7.772,28.637,28.637,0,0,0,6.1-10.917,43.259,43.259,0,0,0,1.769-12.3q0-12-4.721-19.771a26.293,26.293,0,0,0-13.378-11.116,28.183,28.183,0,0,0-7.378-1.868,85.9,85.9,0,0,0-10.131-.491H337.474Zm-374.18,76.528v-4.524l21.641-3.739v-135.35H-54.609a107.191,107.191,0,0,0-10.724,17.7,173.821,173.821,0,0,0-7.375,17.709h-4.721l7.277-43.282H60.083l7.28,43.282H62.642a173.179,173.179,0,0,0-7.378-17.709,106.961,106.961,0,0,0-10.721-17.7H5.589v135.35l21.444,3.739v4.524Zm-390.906-.006v-4.525l16.723-3.738v-134.956l-16.723-3.736v-4.527h109.384l3.345,43.281h-4.724q-2.359-8.459-5.8-17.706a114.762,114.762,0,0,0-8.361-17.705h-56.46v59.808h35.215a87.714,87.714,0,0,0,4.525-11.8,95.83,95.83,0,0,0,2.752-11.8h4.721v55.087h-4.721a80.721,80.721,0,0,0-7.277-23.61h-35.215v68.071h55.477a117.7,117.7,0,0,0,9.541-19.085q3.64-9.441,6.985-19.082h6.491l-7.277,46.034Z" transform="translate(787 10123)" fill="#291204"/></g></g></svg>