<svg xmlns="http://www.w3.org/2000/svg" width="4001" height="380.239" viewBox="0 0 4001 380.239">
  <path id="main_text01" d="M3102.651-9072.981a168.433,168.433,0,0,1-54.515-39.349q-23.228-25.129-36.262-59.489-13.035-34.38-13.035-74.19t13.035-74.187q13.035-34.378,36.262-59.5a168.448,168.448,0,0,1,54.515-39.344q31.288-14.224,68.268-14.229t68.261,14.229a168.454,168.454,0,0,1,54.515,39.344q23.227,25.121,36.27,59.5Q3343-9285.838,3343-9246.01t-13.035,74.19q-13.046,34.359-36.27,59.489a168.439,168.439,0,0,1-54.515,39.349q-31.288,14.224-68.261,14.219T3102.651-9072.981Zm21.333-327.812q-20.852,11.149-35.552,32.475t-22.28,52.146q-7.583,30.825-7.587,69.692t7.587,69.68q7.583,30.809,22.28,52.383t35.315,32.945q20.629,11.383,47.173,11.378,26.069,0,46.928-11.378t35.551-32.945q14.7-21.57,22.288-52.619t7.579-70.4q0-38.875-7.579-69.448-7.595-30.579-22.043-51.672-14.467-21.1-35.322-32.237t-46.928-11.138Q3144.846-9411.932,3123.984-9400.794ZM588.334-9058.771,354.625-9384.442v296.279l42.191,9.008v10.9H293v-10.9l42.665-9.008v-325.2l-42.665-9v-10.909h95.759L584.063-9164.96v-248.4l-42.191-9v-10.909h103.82v10.909l-42.665,9v354.588ZM2824.39-9063.5,2718.2-9229.421h-45.507v146.008l54.034,9.008v10.906H2582.62v-10.906l40.3-9.008v-325.2l-40.3-9.008v-10.9h142.688q27.968,0,51.2,6.87,23.228,6.886,40.059,19.909a88.614,88.614,0,0,1,26.07,32.474q9.249,19.441,9.245,44.56,0,35.563-20.859,58.078t-58.779,31.523l100.97,151.693,54.042,9.008v10.906Zm-151.7-184.406H2703.5q29.867,0,46.936-6.875t27.964-18.729a69.058,69.058,0,0,0,14.7-26.312,104.166,104.166,0,0,0,4.264-29.622q0-28.915-11.377-47.639a63.361,63.361,0,0,0-32.235-26.789,68.283,68.283,0,0,0-17.78-4.508,209.325,209.325,0,0,0-24.411-1.177h-38.868ZM2200.538-9063.5v-10.906l40.289-9.008v-325.2l-40.289-9.008v-10.9h147.425q27.968,0,51.2,7.115t40.059,20.852a92.979,92.979,0,0,1,26.07,34.135q9.249,20.388,9.245,46.453,0,24.173-9.245,42.9a86.329,86.329,0,0,1-26.544,31.525q-17.309,12.8-42.191,19.2t-55.7,6.4h-50.252v136.526l54.042,9.008v10.906Zm90.067-174.922h35.552q29.867,0,47.173-6.641t27.728-18.967a66.75,66.75,0,0,0,14.937-28.205,131.479,131.479,0,0,0,4.027-32.475q0-30.809-11.377-50.955t-32.235-28.209a68.29,68.29,0,0,0-17.78-4.508,209.326,209.326,0,0,0-24.412-1.177h-43.612Zm-996.888,160.7a168.367,168.367,0,0,1-54.515-39.35q-23.227-25.125-36.262-59.489t-13.035-74.19q0-39.823,13.035-74.189t36.262-59.5a168.435,168.435,0,0,1,54.515-39.338Q1325.006-9438,1361.979-9438t68.268,14.229a168.433,168.433,0,0,1,54.515,39.338q23.227,25.125,36.262,59.5t13.042,74.189q0,39.813-13.042,74.19-13.035,34.359-36.262,59.489a168.366,168.366,0,0,1-54.515,39.35q-31.288,14.222-68.268,14.219T1293.718-9077.718Zm21.332-327.8q-20.851,11.14-35.552,32.463-14.7,21.34-22.28,52.148-7.583,30.825-7.587,69.69t7.587,69.683q7.583,30.82,22.28,52.383t35.315,32.945q20.618,11.382,47.165,11.377,26.081,0,46.936-11.377t35.552-32.945q14.7-21.574,22.28-52.623t7.587-70.391q0-38.883-7.587-69.453t-22.043-51.664q-14.456-21.108-35.315-32.236-20.862-11.149-46.928-11.146Q1335.913-9416.669,1315.05-9405.522ZM-461.219-9063.51l-132.258-317.617h-1.9v292.964l42.191,9.008v10.9H-657v-10.9l42.665-9.008v-325.2l-42.665-9v-10.909h99.549l118.039,281.117h2.369L-319-9433.271h99.082v10.909l-42.191,9v325.2l42.191,9.008v10.9H-354.556v-10.9l42.665-9.008v-291.068h-1.895L-448.42-9063.51Zm2352.244-4.727-106.188-165.925h-45.515v146.011l54.049,9.011v10.9H1649.256v-10.9l40.3-9.011v-325.2l-40.3-9v-10.9h142.688q27.979,0,51.2,6.875t40.059,19.9a88.627,88.627,0,0,1,26.07,32.481q9.249,19.43,9.245,44.553,0,35.562-20.859,58.075t-58.779,31.523l100.97,151.7,54.042,9.011v10.9Zm-151.7-184.406h30.814q29.867,0,46.936-6.872t27.964-18.729a69.025,69.025,0,0,0,14.7-26.308,104.223,104.223,0,0,0,4.264-29.63q0-28.915-11.377-47.641a63.366,63.366,0,0,0-32.235-26.786,67.936,67.936,0,0,0-17.78-4.5,206.516,206.516,0,0,0-24.412-1.186h-38.875ZM837.684-9068.236v-10.9l52.147-9.011v-326.144H794.545a258.356,258.356,0,0,0-25.84,42.659,418.811,418.811,0,0,0-17.772,42.672H739.556l17.535-104.294h313.821l17.543,104.294h-11.377a417.254,417.254,0,0,0-17.78-42.672,257.8,257.8,0,0,0-25.833-42.659H939.6v326.144l51.673,9.011v10.9Zm-941.943-.016v-10.9l40.3-9.008v-325.2l-40.3-9v-10.909H159.317l8.061,104.292H155.993q-5.685-20.386-13.982-42.667a276.562,276.562,0,0,0-20.148-42.661H-14.185v144.114H70.671a211.3,211.3,0,0,0,10.9-28.445,230.88,230.88,0,0,0,6.632-28.445H99.583v132.74H88.206a194.519,194.519,0,0,0-17.535-56.894H-14.185v164.028H119.494a283.565,283.565,0,0,0,22.991-45.989q8.771-22.746,16.832-45.979h15.64l-17.535,110.925Z" transform="translate(657.5 9438.502)" fill="none" stroke="#ffe6a3" stroke-width="1" opacity="0.17"/>
</svg>
